<svg width="104" height="82" viewBox="0 0 104 82" fill="none" xmlns="http://www.w3.org/2000/svg">
<g clip-path="url(#clip0_5769_382851)">
<rect y="10" width="72" height="72" fill="#92E7FF"/>
<path d="M102.64 39.938C101.521 37.488 98.474 36.334 95.558 37.261L90.26 38.926C92.153 35.26 93.187 31.212 93.187 27.029C93.187 12.675 81.517 1 67.169 1C52.827 1 41.157 12.676 41.157 27.029C41.157 27.785 41.231 28.524 41.294 29.263C38.07 29.945 34.814 32.213 32.881 33.765V32.946C32.881 30.678 31.039 28.831 28.771 28.831H22.115C19.847 28.831 18 30.679 18 32.946V56.929C18 59.197 19.848 61.044 22.115 61.044H28.771C31.04 61.044 32.881 59.196 32.881 56.929V55.883C37.526 57.776 58.654 66.257 64.6 66.257C64.628 66.257 64.658 66.257 64.68 66.257C69.67 66.194 82.25 58.265 94.7 50.142C96.621 48.891 98.219 47.851 99.304 47.174C103.129 44.804 103.532 41.882 102.64 39.938Z" fill="white"/>
<path d="M25.439 50.5C23.586 50.5 22.08 52.007 22.08 53.859C22.08 55.713 23.587 57.219 25.439 57.219C27.293 57.219 28.799 55.712 28.799 53.859C28.8 52.006 27.293 50.5 25.439 50.5ZM25.439 55.036C24.792 55.036 24.262 54.508 24.262 53.859C24.262 53.212 24.791 52.683 25.439 52.683C26.087 52.683 26.616 53.211 26.616 53.859C26.616 54.507 26.088 55.036 25.439 55.036Z" fill="#1B2E32"/>
<path d="M102.64 39.938C101.521 37.488 98.474 36.334 95.558 37.261L90.26 38.926C92.153 35.26 93.187 31.212 93.187 27.029C93.187 12.675 81.517 1 67.169 1C52.827 1 41.157 12.676 41.157 27.029C41.157 27.785 41.231 28.524 41.294 29.263C38.07 29.945 34.814 32.213 32.881 33.765V32.946C32.881 30.678 31.039 28.831 28.771 28.831H22.115C19.847 28.831 18 30.679 18 32.946V56.929C18 59.197 19.848 61.044 22.115 61.044H28.771C31.04 61.044 32.881 59.196 32.881 56.929V55.883C37.526 57.776 58.654 66.257 64.6 66.257C64.628 66.257 64.658 66.257 64.68 66.257C69.67 66.194 82.25 58.265 94.7 50.142C96.621 48.891 98.219 47.851 99.304 47.174C103.129 44.804 103.532 41.882 102.64 39.938ZM67.169 3.911C79.914 3.911 90.276 14.279 90.276 27.029C90.276 31.622 88.934 36.056 86.393 39.853C86.326 39.956 86.297 40.075 86.257 40.182L83.551 41.036C86.854 37.165 88.736 32.208 88.736 27.029C88.736 15.132 79.061 5.457 67.169 5.457C55.283 5.457 45.608 15.132 45.608 27.029C45.608 27.837 45.727 28.615 45.812 29.405C45.209 29.286 44.669 29.195 44.198 29.138C44.135 28.439 44.067 27.744 44.067 27.029C44.067 14.279 54.431 3.911 67.169 3.911ZM74.939 38.199L72.865 37.511C72.206 37.289 71.535 37.068 70.864 36.846C73.302 36.022 74.701 34.225 74.701 31.678C74.701 28.848 72.632 26.847 68.601 25.699V19.736C70.306 20.094 71.881 21.106 71.904 21.123C72.581 21.561 73.478 21.379 73.917 20.702C74.36 20.032 74.178 19.134 73.508 18.69C73.4 18.622 71.137 17.138 68.602 16.774V14.864C68.602 14.261 68.114 13.773 67.511 13.773C66.908 13.773 66.419 14.261 66.419 14.864V16.774C63.259 17.161 60.319 19.184 60.319 22.379C60.319 26.158 64.309 27.568 66.419 28.125V34.315C63.861 33.992 62.44 32.729 62.167 32.439C61.627 31.848 60.706 31.808 60.115 32.354C59.853 32.593 59.722 32.906 59.677 33.23C55.266 31.848 51.173 30.655 48.035 29.899C47.899 28.961 47.791 28.005 47.791 27.028C47.791 16.336 56.488 7.638 67.169 7.638C77.861 7.638 86.553 16.335 86.553 27.028C86.553 33.133 83.637 38.885 78.754 42.541L77.242 43.013C77.276 42.877 77.327 42.735 77.349 42.598C77.68 40.501 76.73 38.773 74.939 38.199ZM66.419 25.056C64.315 24.363 63.23 23.488 63.23 22.379C63.23 20.856 64.874 19.997 66.419 19.713V25.056ZM68.602 28.728C71.421 29.678 71.791 30.843 71.791 31.678C71.791 32.298 71.757 34.043 68.602 34.378V28.728ZM30.698 56.929C30.698 57.997 29.834 58.862 28.77 58.862H22.114C21.046 58.862 20.181 57.998 20.181 56.929V32.946C20.181 31.878 21.045 31.013 22.114 31.013H28.77C29.833 31.013 30.698 31.877 30.698 32.946V56.929ZM97.769 44.702C96.666 45.39 95.052 46.441 93.114 47.703C85.354 52.763 69.211 63.29 64.646 63.347C59.871 63.427 40.418 55.838 33.313 52.916C33.171 52.859 33.029 52.843 32.881 52.831V37.522C32.978 37.465 33.08 37.425 33.159 37.346C34.739 35.845 39.599 31.951 43.045 31.951C46.983 31.951 65.771 38.21 71.944 40.267L74.048 40.966C74.53 41.119 74.542 41.694 74.474 42.148C74.264 43.473 72.928 45.343 70.603 45.343C65.925 45.343 54.794 42.961 54.687 42.933C53.874 42.78 53.124 43.268 52.953 44.052C52.789 44.837 53.289 45.61 54.073 45.781C54.539 45.884 65.618 48.254 70.603 48.254C72.251 48.254 73.638 47.691 74.736 46.85L96.433 40.035C98.081 39.517 99.565 40.212 99.997 41.149C100.485 42.207 99.65 43.537 97.769 44.702Z" fill="#1B2E32"/>
</g>
<defs>
<clipPath id="clip0_5769_382851">
<rect width="103.038" height="82" fill="white"/>
</clipPath>
</defs>
</svg>
