<svg width="87" height="82" viewBox="0 0 87 82" fill="none" xmlns="http://www.w3.org/2000/svg">
<g clip-path="url(#clip0_5769_382849)">
<rect y="10" width="72" height="72" fill="#92E7FF"/>
<path d="M84.4935 63.8121V17.8507H85.5974C86.0291 17.8507 86.4247 17.6092 86.6222 17.2254C86.8198 16.8415 86.7859 16.3795 86.5356 16.0284L86.5355 16.0283L75.253 0.232829C75.0364 -0.0704667 74.6869 -0.25 74.3149 -0.25H51.7499H29.185C28.813 -0.25 28.4635 -0.0704655 28.2469 0.232829L16.9644 16.0283L16.9643 16.0284C16.7139 16.3795 16.6801 16.8415 16.8777 17.2254C17.0752 17.6092 17.4708 17.8507 17.9025 17.8507H19.0064V63.8121L16.8715 68.0819L16.8715 68.082C16.6931 68.4393 16.7122 68.8636 16.9221 69.2034L16.9222 69.2036C17.1321 69.5429 17.5029 69.75 17.9025 69.75H51.7499H85.5974C85.997 69.75 86.3678 69.5429 86.5777 69.2036L86.5778 69.2034C86.7877 68.8636 86.8068 68.4393 86.6284 68.082L86.6284 68.0819L84.4935 63.8121Z" fill="white" stroke="white" stroke-width="0.5"/>
<mask id="path-3-outside-1_5769_382849" maskUnits="userSpaceOnUse" x="16" y="-1" width="71" height="71" fill="black">
<rect fill="white" x="16" y="-1" width="71" height="71"/>
<path d="M84.2435 63.8711V17.6007H85.5974C85.9354 17.6007 86.2452 17.4116 86.3999 17.111C86.5546 16.8104 86.5282 16.4486 86.332 16.1736L75.0496 0.378139C74.8799 0.14059 74.6062 0 74.3149 0H51.7499H29.185C28.8937 0 28.62 0.14059 28.4503 0.378139L17.1679 16.1736C16.9717 16.4486 16.9453 16.8104 17.1 17.111C17.2547 17.4116 17.5645 17.6007 17.9025 17.6007H19.2564V63.8711L17.0951 68.1937C16.9554 68.4736 16.9704 68.8059 17.1348 69.0721C17.2992 69.3378 17.5896 69.5 17.9025 69.5H51.7499H85.5974C85.9103 69.5 86.2007 69.3378 86.3651 69.0721C86.5295 68.8059 86.5445 68.4736 86.4048 68.1937L84.2435 63.8711ZM29.6495 1.80519H51.7499H73.8504L83.8433 15.7955H83.3409H63.3487L52.3136 6.96736C51.984 6.70381 51.5159 6.70381 51.1863 6.96736L40.1512 15.7955H20.159H19.6566L29.6495 1.80519ZM60.7759 40.6169H51.7499H42.724C42.2255 40.6169 41.8214 41.021 41.8214 41.5195V63.1818H36.8571V28.2248L51.7499 17.7999L66.6428 28.2248V63.1818H61.6785V41.5195C61.6785 41.021 61.2744 40.6169 60.7759 40.6169ZM59.8733 42.4221V63.1818H51.7499H43.6266V42.4221H51.7499H59.8733ZM54.6132 17.6007L52.2674 15.9585C52.2335 15.9347 52.1947 15.9236 52.1586 15.9051C52.1276 15.8891 52.0973 15.8712 52.0651 15.8591C51.9663 15.822 51.8617 15.7955 51.7499 15.7955C51.6424 15.7955 51.537 15.8208 51.4348 15.8591C51.4025 15.8712 51.3723 15.8891 51.3413 15.9051C51.3052 15.9236 51.2664 15.9347 51.2325 15.9585L48.8867 17.6007L30.0876 30.7602V26.1577L40.7841 17.6007L43.0406 15.7955L51.7499 8.82809L60.4593 15.7955L62.7158 17.6007L73.4123 26.1577V30.7602L54.6132 17.6007ZM28.7681 33.2943C29.0669 33.4481 29.427 33.4248 29.7024 33.233L35.0519 29.4884V63.1818H21.0616V17.6007H37.8947L28.6213 25.0193C28.4071 25.1903 28.2824 25.4499 28.2824 25.724V32.4935C28.2824 32.8302 28.4697 33.1387 28.7681 33.2943ZM68.448 29.4884L73.7975 33.233C73.9517 33.341 74.1329 33.3961 74.3149 33.3961C74.4577 33.3961 74.6005 33.3622 74.7318 33.2943C75.0302 33.1387 75.2175 32.8302 75.2175 32.4935V25.724C75.2175 25.4499 75.0928 25.1903 74.8786 25.0193L65.6052 17.6007H82.4383V63.1818H68.448V29.4884ZM51.7499 67.6948H19.3631L20.717 64.987H35.9545H42.724H51.7499H60.7759H67.5454H82.7829L84.1368 67.6948H51.7499Z"/>
</mask>
<path d="M84.2435 63.8711V17.6007H85.5974C85.9354 17.6007 86.2452 17.4116 86.3999 17.111C86.5546 16.8104 86.5282 16.4486 86.332 16.1736L75.0496 0.378139C74.8799 0.14059 74.6062 0 74.3149 0H51.7499H29.185C28.8937 0 28.62 0.14059 28.4503 0.378139L17.1679 16.1736C16.9717 16.4486 16.9453 16.8104 17.1 17.111C17.2547 17.4116 17.5645 17.6007 17.9025 17.6007H19.2564V63.8711L17.0951 68.1937C16.9554 68.4736 16.9704 68.8059 17.1348 69.0721C17.2992 69.3378 17.5896 69.5 17.9025 69.5H51.7499H85.5974C85.9103 69.5 86.2007 69.3378 86.3651 69.0721C86.5295 68.8059 86.5445 68.4736 86.4048 68.1937L84.2435 63.8711ZM29.6495 1.80519H51.7499H73.8504L83.8433 15.7955H83.3409H63.3487L52.3136 6.96736C51.984 6.70381 51.5159 6.70381 51.1863 6.96736L40.1512 15.7955H20.159H19.6566L29.6495 1.80519ZM60.7759 40.6169H51.7499H42.724C42.2255 40.6169 41.8214 41.021 41.8214 41.5195V63.1818H36.8571V28.2248L51.7499 17.7999L66.6428 28.2248V63.1818H61.6785V41.5195C61.6785 41.021 61.2744 40.6169 60.7759 40.6169ZM59.8733 42.4221V63.1818H51.7499H43.6266V42.4221H51.7499H59.8733ZM54.6132 17.6007L52.2674 15.9585C52.2335 15.9347 52.1947 15.9236 52.1586 15.9051C52.1276 15.8891 52.0973 15.8712 52.0651 15.8591C51.9663 15.822 51.8617 15.7955 51.7499 15.7955C51.6424 15.7955 51.537 15.8208 51.4348 15.8591C51.4025 15.8712 51.3723 15.8891 51.3413 15.9051C51.3052 15.9236 51.2664 15.9347 51.2325 15.9585L48.8867 17.6007L30.0876 30.7602V26.1577L40.7841 17.6007L43.0406 15.7955L51.7499 8.82809L60.4593 15.7955L62.7158 17.6007L73.4123 26.1577V30.7602L54.6132 17.6007ZM28.7681 33.2943C29.0669 33.4481 29.427 33.4248 29.7024 33.233L35.0519 29.4884V63.1818H21.0616V17.6007H37.8947L28.6213 25.0193C28.4071 25.1903 28.2824 25.4499 28.2824 25.724V32.4935C28.2824 32.8302 28.4697 33.1387 28.7681 33.2943ZM68.448 29.4884L73.7975 33.233C73.9517 33.341 74.1329 33.3961 74.3149 33.3961C74.4577 33.3961 74.6005 33.3622 74.7318 33.2943C75.0302 33.1387 75.2175 32.8302 75.2175 32.4935V25.724C75.2175 25.4499 75.0928 25.1903 74.8786 25.0193L65.6052 17.6007H82.4383V63.1818H68.448V29.4884ZM51.7499 67.6948H19.3631L20.717 64.987H35.9545H42.724H51.7499H60.7759H67.5454H82.7829L84.1368 67.6948H51.7499Z" fill="#1B2E32"/>
<path d="M84.2435 63.8711V17.6007H85.5974C85.9354 17.6007 86.2452 17.4116 86.3999 17.111C86.5546 16.8104 86.5282 16.4486 86.332 16.1736L75.0496 0.378139C74.8799 0.14059 74.6062 0 74.3149 0H51.7499H29.185C28.8937 0 28.62 0.14059 28.4503 0.378139L17.1679 16.1736C16.9717 16.4486 16.9453 16.8104 17.1 17.111C17.2547 17.4116 17.5645 17.6007 17.9025 17.6007H19.2564V63.8711L17.0951 68.1937C16.9554 68.4736 16.9704 68.8059 17.1348 69.0721C17.2992 69.3378 17.5896 69.5 17.9025 69.5H51.7499H85.5974C85.9103 69.5 86.2007 69.3378 86.3651 69.0721C86.5295 68.8059 86.5445 68.4736 86.4048 68.1937L84.2435 63.8711ZM29.6495 1.80519H51.7499H73.8504L83.8433 15.7955H83.3409H63.3487L52.3136 6.96736C51.984 6.70381 51.5159 6.70381 51.1863 6.96736L40.1512 15.7955H20.159H19.6566L29.6495 1.80519ZM60.7759 40.6169H51.7499H42.724C42.2255 40.6169 41.8214 41.021 41.8214 41.5195V63.1818H36.8571V28.2248L51.7499 17.7999L66.6428 28.2248V63.1818H61.6785V41.5195C61.6785 41.021 61.2744 40.6169 60.7759 40.6169ZM59.8733 42.4221V63.1818H51.7499H43.6266V42.4221H51.7499H59.8733ZM54.6132 17.6007L52.2674 15.9585C52.2335 15.9347 52.1947 15.9236 52.1586 15.9051C52.1276 15.8891 52.0973 15.8712 52.0651 15.8591C51.9663 15.822 51.8617 15.7955 51.7499 15.7955C51.6424 15.7955 51.537 15.8208 51.4348 15.8591C51.4025 15.8712 51.3723 15.8891 51.3413 15.9051C51.3052 15.9236 51.2664 15.9347 51.2325 15.9585L48.8867 17.6007L30.0876 30.7602V26.1577L40.7841 17.6007L43.0406 15.7955L51.7499 8.82809L60.4593 15.7955L62.7158 17.6007L73.4123 26.1577V30.7602L54.6132 17.6007ZM28.7681 33.2943C29.0669 33.4481 29.427 33.4248 29.7024 33.233L35.0519 29.4884V63.1818H21.0616V17.6007H37.8947L28.6213 25.0193C28.4071 25.1903 28.2824 25.4499 28.2824 25.724V32.4935C28.2824 32.8302 28.4697 33.1387 28.7681 33.2943ZM68.448 29.4884L73.7975 33.233C73.9517 33.341 74.1329 33.3961 74.3149 33.3961C74.4577 33.3961 74.6005 33.3622 74.7318 33.2943C75.0302 33.1387 75.2175 32.8302 75.2175 32.4935V25.724C75.2175 25.4499 75.0928 25.1903 74.8786 25.0193L65.6052 17.6007H82.4383V63.1818H68.448V29.4884ZM51.7499 67.6948H19.3631L20.717 64.987H35.9545H42.724H51.7499H60.7759H67.5454H82.7829L84.1368 67.6948H51.7499Z" stroke="#1B2E32" mask="url(#path-3-outside-1_5769_382849)"/>
<path d="M51.75 22.3149C47.3814 22.3149 43.8279 25.8685 43.8279 30.237C43.8279 34.6056 47.3814 38.1591 51.75 38.1591C56.1185 38.1591 59.6721 34.6056 59.6721 30.237C59.6721 25.8685 56.1185 22.3149 51.75 22.3149ZM51.75 35.8539C48.6532 35.8539 46.1331 33.3338 46.1331 30.237C46.1331 27.1402 48.6532 24.6201 51.75 24.6201C54.8468 24.6201 57.3669 27.1402 57.3669 30.237C57.3669 33.3338 54.8468 35.8539 51.75 35.8539Z" fill="#1B2E32" stroke="#1B2E32" stroke-width="0.5"/>
</g>
<defs>
<clipPath id="clip0_5769_382849">
<rect width="86.4999" height="82" fill="white"/>
</clipPath>
</defs>
</svg>
