<svg width="111" height="49" viewBox="0 0 111 49" fill="none" xmlns="http://www.w3.org/2000/svg">
<g clip-path="url(#clip0_5607_379292)">
<g clip-path="url(#clip1_5607_379292)">
<mask id="path-1-outside-1_5607_379292" maskUnits="userSpaceOnUse" x="0" y="9" width="22" height="32" fill="black">
<rect fill="white" y="9" width="22" height="32"/>
<path d="M2.76562 9.53027C3.65983 9.53027 4.82096 9.48356 6.24902 9.39014C6.48926 9.37679 7.03646 9.3501 7.89062 9.31006C8.75814 9.27002 9.57227 9.25 10.333 9.25C13.7096 9.25 16.3122 10.0374 18.1406 11.6123C19.9691 13.1738 20.8833 15.6629 20.8833 19.0796C20.8833 21.255 20.4229 23.1169 19.502 24.665C18.5811 26.2132 17.2598 27.3944 15.5381 28.2085C13.8298 29.0226 11.8011 29.4364 9.45215 29.4497C8.37109 29.4631 7.04313 29.423 5.46826 29.3296L4.50732 29.2896V40H1.12402V9.53027H2.76562ZM9.25195 26.9473C11.7744 26.9206 13.7764 26.2933 15.2578 25.0654C16.7526 23.8242 17.5 21.8356 17.5 19.0996C17.5 16.5371 16.866 14.6619 15.5981 13.4741C14.3302 12.2863 12.3817 11.6924 9.75244 11.6924C7.76383 11.6924 6.01546 11.7992 4.50732 12.0127V26.707C5.08122 26.7871 5.84196 26.8472 6.78955 26.8872C7.73714 26.9272 8.55794 26.9473 9.25195 26.9473Z"/>
</mask>
<path d="M2.76562 9.53027C3.65983 9.53027 4.82096 9.48356 6.24902 9.39014C6.48926 9.37679 7.03646 9.3501 7.89062 9.31006C8.75814 9.27002 9.57227 9.25 10.333 9.25C13.7096 9.25 16.3122 10.0374 18.1406 11.6123C19.9691 13.1738 20.8833 15.6629 20.8833 19.0796C20.8833 21.255 20.4229 23.1169 19.502 24.665C18.5811 26.2132 17.2598 27.3944 15.5381 28.2085C13.8298 29.0226 11.8011 29.4364 9.45215 29.4497C8.37109 29.4631 7.04313 29.423 5.46826 29.3296L4.50732 29.2896V40H1.12402V9.53027H2.76562ZM9.25195 26.9473C11.7744 26.9206 13.7764 26.2933 15.2578 25.0654C16.7526 23.8242 17.5 21.8356 17.5 19.0996C17.5 16.5371 16.866 14.6619 15.5981 13.4741C14.3302 12.2863 12.3817 11.6924 9.75244 11.6924C7.76383 11.6924 6.01546 11.7992 4.50732 12.0127V26.707C5.08122 26.7871 5.84196 26.8472 6.78955 26.8872C7.73714 26.9272 8.55794 26.9473 9.25195 26.9473Z" fill="white"/>
<path d="M6.24902 9.39014L6.2407 9.24036L6.23923 9.24046L6.24902 9.39014ZM7.89062 9.31006L7.88371 9.16022L7.8836 9.16022L7.89062 9.31006ZM18.1406 11.6123L18.0427 11.726L18.0432 11.7264L18.1406 11.6123ZM15.5381 28.2085L15.474 28.0729L15.4736 28.0731L15.5381 28.2085ZM9.45215 29.4497L9.4513 29.2997L9.4503 29.2997L9.45215 29.4497ZM5.46826 29.3296L5.47715 29.1798L5.47451 29.1797L5.46826 29.3296ZM4.50732 29.2896L4.51357 29.1397L4.35732 29.1332V29.2896H4.50732ZM4.50732 40V40.15H4.65732V40H4.50732ZM1.12402 40H0.974023V40.15H1.12402V40ZM1.12402 9.53027V9.38027H0.974023V9.53027H1.12402ZM9.25195 26.9473V27.0973L9.25354 27.0973L9.25195 26.9473ZM15.2578 25.0654L15.3535 25.1809L15.3536 25.1808L15.2578 25.0654ZM4.50732 12.0127L4.4863 11.8642L4.35732 11.8824V12.0127H4.50732ZM4.50732 26.707H4.35732V26.8376L4.48659 26.8556L4.50732 26.707ZM6.78955 26.8872L6.78322 27.0371L6.78955 26.8872ZM2.76562 9.68027C3.66443 9.68027 4.82918 9.63334 6.25882 9.53982L6.23923 9.24046C4.81275 9.33378 3.65523 9.38027 2.76562 9.38027V9.68027ZM6.25734 9.53991C6.4968 9.5266 7.04329 9.49994 7.89765 9.45989L7.8836 9.16022C7.02962 9.20025 6.48172 9.22698 6.2407 9.24037L6.25734 9.53991ZM7.89754 9.4599C8.76306 9.41995 9.57487 9.4 10.333 9.4V9.1C9.56966 9.1 8.75321 9.12009 7.88371 9.16022L7.89754 9.4599ZM10.333 9.4C13.688 9.4 16.2506 10.1824 18.0427 11.726L18.2385 11.4987C16.3737 9.89246 13.7313 9.1 10.333 9.1V9.4ZM18.0432 11.7264C19.8261 13.249 20.7333 15.6877 20.7333 19.0796H21.0333C21.0333 15.6382 20.1121 13.0987 18.238 11.4982L18.0432 11.7264ZM20.7333 19.0796C20.7333 21.2337 20.2775 23.0678 19.373 24.5884L19.6309 24.7417C20.5682 23.166 21.0333 21.2764 21.0333 19.0796H20.7333ZM19.373 24.5884C18.4683 26.1094 17.1703 27.2708 15.474 28.0729L15.6022 28.3441C17.3492 27.518 18.6938 26.3171 19.6309 24.7417L19.373 24.5884ZM15.4736 28.0731C13.7893 28.8757 11.7834 29.2865 9.4513 29.2997L9.453 29.5997C11.8188 29.5863 13.8702 29.1695 15.6026 28.3439L15.4736 28.0731ZM9.4503 29.2997C8.37404 29.313 7.0499 29.2732 5.47714 29.1799L5.45938 29.4793C7.03636 29.5729 8.36815 29.6131 9.454 29.5997L9.4503 29.2997ZM5.47451 29.1797L4.51357 29.1397L4.50108 29.4394L5.46202 29.4795L5.47451 29.1797ZM4.35732 29.2896V40H4.65732V29.2896H4.35732ZM4.50732 39.85H1.12402V40.15H4.50732V39.85ZM1.27402 40V9.53027H0.974023V40H1.27402ZM1.12402 9.68027H2.76562V9.38027H1.12402V9.68027ZM9.25354 27.0973C11.7996 27.0703 13.8383 26.4368 15.3535 25.1809L15.1621 24.9499C13.7144 26.1498 11.7492 26.7708 9.25037 26.7973L9.25354 27.0973ZM15.3536 25.1808C16.8951 23.9009 17.65 21.8612 17.65 19.0996H17.35C17.35 21.81 16.6101 23.7476 15.162 24.95L15.3536 25.1808ZM17.65 19.0996C17.65 16.5154 17.0108 14.592 15.7007 13.3647L15.4956 13.5836C16.7213 14.7319 17.35 16.5588 17.35 19.0996H17.65ZM15.7007 13.3647C14.3937 12.1402 12.4007 11.5424 9.75244 11.5424V11.8424C12.3627 11.8424 14.2668 12.4324 15.4956 13.5836L15.7007 13.3647ZM9.75244 11.5424C7.75879 11.5424 6.00313 11.6494 4.4863 11.8642L4.52835 12.1612C6.02779 11.9489 7.76887 11.8424 9.75244 11.8424V11.5424ZM4.35732 12.0127V26.707H4.65732V12.0127H4.35732ZM4.48659 26.8556C5.0673 26.9366 5.83342 26.9969 6.78322 27.0371L6.79588 26.7373C5.8505 26.6974 5.09514 26.6376 4.52805 26.5585L4.48659 26.8556ZM6.78322 27.0371C7.73221 27.0772 8.55523 27.0973 9.25195 27.0973V26.7973C8.56066 26.7973 7.74207 26.7773 6.79588 26.7373L6.78322 27.0371Z" fill="white" mask="url(#path-1-outside-1_5607_379292)"/>
<mask id="path-3-outside-2_5607_379292" maskUnits="userSpaceOnUse" x="26" y="15" width="85" height="26" fill="black">
<rect fill="white" x="26" y="15" width="85" height="26"/>
<path d="M29.3164 15.4756V40H26.561V15.4756H29.3164ZM38.9844 15.4756V37.8569H49.1196V40H36.2129V15.4756H38.9844ZM56.1611 15.4756V37.8569H66.2964V40H53.3896V15.4756H56.1611ZM83.8599 33.2646H73.1445L70.6792 40H67.7788L77.2534 15.2178H79.9282L89.1772 40H86.2285L83.8599 33.2646ZM83.1509 31.2183L79.2192 20.0195L78.6069 18.0859L77.9946 20.0356L73.9019 31.2183H83.1509ZM109.625 38.3564C110.044 39.1406 110.355 39.6885 110.56 40H107.466C107.358 39.8711 107.251 39.7046 107.144 39.5005C107.036 39.2856 106.913 39.0332 106.773 38.7432C106.741 38.668 106.708 38.5981 106.676 38.5337C106.644 38.4692 106.617 38.4102 106.596 38.3564C106.327 37.7871 106.032 37.1211 105.709 36.3584C105.129 35.0049 104.619 33.8877 104.179 33.0068C103.738 32.126 103.223 31.3311 102.632 30.6221C102.052 29.9131 101.423 29.4727 100.747 29.3008C99.8872 29.3223 99.1621 29.333 98.5713 29.333L95.7515 29.3169V40H93.0283V15.4756L94.6396 15.4595C95.0371 15.4595 95.7944 15.4272 96.9116 15.3628C98.6411 15.2876 99.8174 15.25 100.44 15.25C106.048 15.25 108.852 17.5059 108.852 22.0176C108.852 23.8223 108.411 25.3101 107.53 26.481C106.649 27.6411 105.43 28.4414 103.873 28.8818C104.42 29.2041 104.947 29.709 105.452 30.3965C105.957 31.084 106.413 31.8252 106.821 32.6201C107.229 33.4043 107.718 34.4033 108.288 35.6172C108.803 36.7666 109.249 37.6797 109.625 38.3564ZM95.7515 27.3833C96.3853 27.4478 97.9106 27.48 100.328 27.48C102.1 27.4585 103.497 27.002 104.517 26.1104C105.538 25.208 106.053 23.8867 106.064 22.1465C106.064 20.9756 105.849 20.0356 105.419 19.3267C105 18.6069 104.345 18.0859 103.454 17.7637C102.573 17.4307 101.423 17.2642 100.005 17.2642C99.2104 17.2642 98.4209 17.2856 97.6367 17.3286C96.8525 17.3716 96.2241 17.436 95.7515 17.522V27.3833Z"/>
</mask>
<path d="M29.3164 15.4756V40H26.561V15.4756H29.3164ZM38.9844 15.4756V37.8569H49.1196V40H36.2129V15.4756H38.9844ZM56.1611 15.4756V37.8569H66.2964V40H53.3896V15.4756H56.1611ZM83.8599 33.2646H73.1445L70.6792 40H67.7788L77.2534 15.2178H79.9282L89.1772 40H86.2285L83.8599 33.2646ZM83.1509 31.2183L79.2192 20.0195L78.6069 18.0859L77.9946 20.0356L73.9019 31.2183H83.1509ZM109.625 38.3564C110.044 39.1406 110.355 39.6885 110.56 40H107.466C107.358 39.8711 107.251 39.7046 107.144 39.5005C107.036 39.2856 106.913 39.0332 106.773 38.7432C106.741 38.668 106.708 38.5981 106.676 38.5337C106.644 38.4692 106.617 38.4102 106.596 38.3564C106.327 37.7871 106.032 37.1211 105.709 36.3584C105.129 35.0049 104.619 33.8877 104.179 33.0068C103.738 32.126 103.223 31.3311 102.632 30.6221C102.052 29.9131 101.423 29.4727 100.747 29.3008C99.8872 29.3223 99.1621 29.333 98.5713 29.333L95.7515 29.3169V40H93.0283V15.4756L94.6396 15.4595C95.0371 15.4595 95.7944 15.4272 96.9116 15.3628C98.6411 15.2876 99.8174 15.25 100.44 15.25C106.048 15.25 108.852 17.5059 108.852 22.0176C108.852 23.8223 108.411 25.3101 107.53 26.481C106.649 27.6411 105.43 28.4414 103.873 28.8818C104.42 29.2041 104.947 29.709 105.452 30.3965C105.957 31.084 106.413 31.8252 106.821 32.6201C107.229 33.4043 107.718 34.4033 108.288 35.6172C108.803 36.7666 109.249 37.6797 109.625 38.3564ZM95.7515 27.3833C96.3853 27.4478 97.9106 27.48 100.328 27.48C102.1 27.4585 103.497 27.002 104.517 26.1104C105.538 25.208 106.053 23.8867 106.064 22.1465C106.064 20.9756 105.849 20.0356 105.419 19.3267C105 18.6069 104.345 18.0859 103.454 17.7637C102.573 17.4307 101.423 17.2642 100.005 17.2642C99.2104 17.2642 98.4209 17.2856 97.6367 17.3286C96.8525 17.3716 96.2241 17.436 95.7515 17.522V27.3833Z" fill="white"/>
<path d="M29.3164 15.4756H29.4664V15.3256H29.3164V15.4756ZM29.3164 40V40.15H29.4664V40H29.3164ZM26.561 40H26.411V40.15H26.561V40ZM26.561 15.4756V15.3256H26.411V15.4756H26.561ZM29.1664 15.4756V40H29.4664V15.4756H29.1664ZM29.3164 39.85H26.561V40.15H29.3164V39.85ZM26.711 40V15.4756H26.411V40H26.711ZM26.561 15.6256H29.3164V15.3256H26.561V15.6256ZM38.9844 15.4756H39.1344V15.3256H38.9844V15.4756ZM38.9844 37.8569H38.8344V38.0069H38.9844V37.8569ZM49.1196 37.8569H49.2696V37.7069H49.1196V37.8569ZM49.1196 40V40.15H49.2696V40H49.1196ZM36.2129 40H36.0629V40.15H36.2129V40ZM36.2129 15.4756V15.3256H36.0629V15.4756H36.2129ZM38.8344 15.4756V37.8569H39.1344V15.4756H38.8344ZM38.9844 38.0069H49.1196V37.7069H38.9844V38.0069ZM48.9696 37.8569V40H49.2696V37.8569H48.9696ZM49.1196 39.85H36.2129V40.15H49.1196V39.85ZM36.3629 40V15.4756H36.0629V40H36.3629ZM36.2129 15.6256H38.9844V15.3256H36.2129V15.6256ZM56.1611 15.4756H56.3111V15.3256H56.1611V15.4756ZM56.1611 37.8569H56.0111V38.0069H56.1611V37.8569ZM66.2964 37.8569H66.4464V37.7069H66.2964V37.8569ZM66.2964 40V40.15H66.4464V40H66.2964ZM53.3896 40H53.2396V40.15H53.3896V40ZM53.3896 15.4756V15.3256H53.2396V15.4756H53.3896ZM56.0111 15.4756V37.8569H56.3111V15.4756H56.0111ZM56.1611 38.0069H66.2964V37.7069H56.1611V38.0069ZM66.1464 37.8569V40H66.4464V37.8569H66.1464ZM66.2964 39.85H53.3896V40.15H66.2964V39.85ZM53.5396 40V15.4756H53.2396V40H53.5396ZM53.3896 15.6256H56.1611V15.3256H53.3896V15.6256ZM83.8599 33.2646L84.0014 33.2149L83.9661 33.1146H83.8599V33.2646ZM73.1445 33.2646V33.1146H73.0397L73.0037 33.2131L73.1445 33.2646ZM70.6792 40V40.15H70.784L70.8201 40.0516L70.6792 40ZM67.7788 40L67.6387 39.9464L67.5609 40.15H67.7788V40ZM77.2534 15.2178V15.0678H77.1502L77.1133 15.1642L77.2534 15.2178ZM79.9282 15.2178L80.0688 15.1653L80.0323 15.0678H79.9282V15.2178ZM89.1772 40V40.15H89.3933L89.3178 39.9476L89.1772 40ZM86.2285 40L86.087 40.0498L86.1223 40.15H86.2285V40ZM83.1509 31.2183V31.3683H83.3625L83.2924 31.1686L83.1509 31.2183ZM79.2192 20.0195L79.0762 20.0648L79.0777 20.0692L79.2192 20.0195ZM78.6069 18.0859L78.7499 18.0407L78.6063 17.5872L78.4638 18.041L78.6069 18.0859ZM77.9946 20.0356L78.1356 20.0873L78.1377 20.0806L77.9946 20.0356ZM73.9019 31.2183L73.761 31.1667L73.6872 31.3683H73.9019V31.2183ZM83.8599 33.1146H73.1445V33.4146H83.8599V33.1146ZM73.0037 33.2131L70.5383 39.9484L70.8201 40.0516L73.2854 33.3162L73.0037 33.2131ZM70.6792 39.85H67.7788V40.15H70.6792V39.85ZM67.9189 40.0536L77.3935 15.2713L77.1133 15.1642L67.6387 39.9464L67.9189 40.0536ZM77.2534 15.3678H79.9282V15.0678H77.2534V15.3678ZM79.7877 15.2702L89.0367 40.0524L89.3178 39.9476L80.0688 15.1653L79.7877 15.2702ZM89.1772 39.85H86.2285V40.15H89.1772V39.85ZM86.37 39.9502L84.0014 33.2149L83.7184 33.3144L86.087 40.0498L86.37 39.9502ZM83.2924 31.1686L79.3608 19.9698L79.0777 20.0692L83.0093 31.268L83.2924 31.1686ZM79.3622 19.9742L78.7499 18.0407L78.4639 18.1312L79.0762 20.0648L79.3622 19.9742ZM78.4638 18.041L77.8515 19.9907L78.1377 20.0806L78.75 18.1309L78.4638 18.041ZM77.8538 19.9841L73.761 31.1667L74.0427 31.2698L78.1355 20.0872L77.8538 19.9841ZM73.9019 31.3683H83.1509V31.0683H73.9019V31.3683ZM109.625 38.3564L109.757 38.2858L109.756 38.2836L109.625 38.3564ZM110.56 40V40.15H110.837L110.685 39.9178L110.56 40ZM107.466 40L107.351 40.096L107.396 40.15H107.466V40ZM107.144 39.5005L107.009 39.5676L107.011 39.5704L107.144 39.5005ZM106.773 38.7432L106.635 38.8023L106.638 38.8082L106.773 38.7432ZM106.596 38.3564L106.735 38.3006L106.731 38.2925L106.596 38.3564ZM105.709 36.3584L105.848 36.3L105.847 36.2993L105.709 36.3584ZM102.632 30.6221L102.516 30.7171L102.517 30.7181L102.632 30.6221ZM100.747 29.3008L100.784 29.1554L100.763 29.1503L100.743 29.1508L100.747 29.3008ZM98.5713 29.333L98.5704 29.483H98.5713V29.333ZM95.7515 29.3169L95.7523 29.1669L95.6015 29.166V29.3169H95.7515ZM95.7515 40V40.15H95.9015V40H95.7515ZM93.0283 40H92.8783V40.15H93.0283V40ZM93.0283 15.4756L93.0268 15.3256L92.8783 15.3271V15.4756H93.0283ZM94.6396 15.4595V15.3095L94.6381 15.3095L94.6396 15.4595ZM96.9116 15.3628L96.9051 15.2129L96.903 15.213L96.9116 15.3628ZM107.53 26.481L107.65 26.5717L107.65 26.5711L107.53 26.481ZM103.873 28.8818L103.832 28.7375L103.494 28.8331L103.797 29.0111L103.873 28.8818ZM106.821 32.6201L106.688 32.6886L106.688 32.6894L106.821 32.6201ZM108.288 35.6172L108.424 35.5558L108.423 35.5535L108.288 35.6172ZM95.7515 27.3833H95.6015V27.5188L95.7363 27.5325L95.7515 27.3833ZM100.328 27.48V27.63L100.329 27.63L100.328 27.48ZM104.517 26.1104L104.616 26.2233L104.616 26.2227L104.517 26.1104ZM106.064 22.1465L106.214 22.1474V22.1465H106.064ZM105.419 19.3267L105.29 19.4021L105.291 19.4044L105.419 19.3267ZM103.454 17.7637L103.401 17.904L103.403 17.9047L103.454 17.7637ZM95.7515 17.522L95.7246 17.3744L95.6015 17.3968V17.522H95.7515ZM109.493 38.4271C109.912 39.2114 110.226 39.7645 110.434 40.0822L110.685 39.9178C110.485 39.6124 110.176 39.0699 109.757 38.2858L109.493 38.4271ZM110.56 39.85H107.466V40.15H110.56V39.85ZM107.581 39.904C107.482 39.7855 107.38 39.6286 107.276 39.4306L107.011 39.5704C107.121 39.7806 107.234 39.9567 107.351 40.096L107.581 39.904ZM107.278 39.4334C107.171 39.2194 107.048 38.9677 106.908 38.6781L106.638 38.8082C106.778 39.0987 106.902 39.3519 107.009 39.5676L107.278 39.4334ZM106.911 38.6841C106.878 38.6065 106.844 38.534 106.81 38.4666L106.542 38.6008C106.573 38.6623 106.604 38.7294 106.635 38.8023L106.911 38.6841ZM106.81 38.4666C106.78 38.405 106.755 38.3498 106.735 38.3007L106.456 38.4122C106.48 38.4705 106.508 38.5335 106.542 38.6008L106.81 38.4666ZM106.731 38.2925C106.464 37.7254 106.169 37.0614 105.848 36.3L105.571 36.4168C105.894 37.1808 106.19 37.8488 106.46 38.4204L106.731 38.2925ZM105.847 36.2993C105.267 34.9443 104.755 33.8242 104.313 32.9398L104.045 33.0739C104.483 33.9512 104.992 35.0655 105.572 36.4175L105.847 36.2993ZM104.313 32.9398C103.868 32.0492 103.346 31.2445 102.747 30.526L102.517 30.7181C103.1 31.4176 103.609 32.2027 104.045 33.0739L104.313 32.9398ZM102.748 30.5271C102.154 29.801 101.5 29.3373 100.784 29.1554L100.71 29.4462C101.347 29.608 101.95 30.0252 102.516 30.7171L102.748 30.5271ZM100.743 29.1508C99.8842 29.1723 99.1604 29.183 98.5713 29.183V29.483C99.1638 29.483 99.8902 29.4722 100.75 29.4507L100.743 29.1508ZM98.5721 29.183L95.7523 29.1669L95.7506 29.4669L98.5704 29.483L98.5721 29.183ZM95.6015 29.3169V40H95.9015V29.3169H95.6015ZM95.7515 39.85H93.0283V40.15H95.7515V39.85ZM93.1783 40V15.4756H92.8783V40H93.1783ZM93.0298 15.6256L94.6412 15.6095L94.6381 15.3095L93.0268 15.3256L93.0298 15.6256ZM94.6396 15.6095C95.0421 15.6095 95.8036 15.577 96.9203 15.5125L96.903 15.213C95.7853 15.2775 95.0321 15.3095 94.6396 15.3095V15.6095ZM96.9181 15.5127C98.648 15.4374 99.8211 15.4 100.44 15.4V15.1C99.8136 15.1 98.6342 15.1378 96.9051 15.2129L96.9181 15.5127ZM100.44 15.4C103.228 15.4 105.291 15.9614 106.655 17.0588C108.012 18.1512 108.702 19.7945 108.702 22.0176H109.002C109.002 19.7289 108.289 17.9885 106.843 16.825C105.403 15.6666 103.26 15.1 100.44 15.1V15.4ZM108.702 22.0176C108.702 23.7974 108.268 25.2514 107.41 26.3908L107.65 26.5711C108.555 25.3687 109.002 23.8471 109.002 22.0176H108.702ZM107.411 26.3903C106.552 27.5216 105.362 28.3049 103.832 28.7375L103.913 29.0262C105.499 28.5779 106.747 27.7606 107.65 26.5717L107.411 26.3903ZM103.797 29.0111C104.322 29.3202 104.834 29.8089 105.331 30.4853L105.573 30.3077C105.06 29.6091 104.519 29.088 103.949 28.7525L103.797 29.0111ZM105.331 30.4853C105.831 31.1661 106.283 31.9005 106.688 32.6886L106.955 32.5516C106.543 31.7499 106.082 31.0019 105.573 30.3077L105.331 30.4853ZM106.688 32.6894C107.095 33.471 107.583 34.468 108.152 35.6809L108.423 35.5535C107.854 34.3386 107.364 33.3375 106.954 32.5509L106.688 32.6894ZM108.151 35.6786C108.667 36.8298 109.115 37.7472 109.494 38.4293L109.756 38.2836C109.383 37.6121 108.939 36.7034 108.424 35.5558L108.151 35.6786ZM95.7363 27.5325C96.3793 27.5979 97.9132 27.63 100.328 27.63V27.33C97.9081 27.33 96.3912 27.2976 95.7666 27.2341L95.7363 27.5325ZM100.329 27.63C102.126 27.6082 103.561 27.1448 104.616 26.2233L104.418 25.9974C103.432 26.8591 102.074 27.3088 100.326 27.33L100.329 27.63ZM104.616 26.2227C105.677 25.2847 106.203 23.9177 106.214 22.1474L105.914 22.1456C105.903 23.8558 105.398 25.1313 104.418 25.998L104.616 26.2227ZM106.214 22.1465C106.214 20.9589 105.996 19.9891 105.548 19.2489L105.291 19.4044C105.702 20.0822 105.914 20.9922 105.914 22.1465H106.214ZM105.549 19.2512C105.11 18.4969 104.424 17.9551 103.505 17.6226L103.403 17.9047C104.266 18.2168 104.891 18.717 105.29 19.4021L105.549 19.2512ZM103.507 17.6234C102.603 17.2816 101.433 17.1142 100.005 17.1142V17.4142C101.413 17.4142 102.543 17.5798 103.401 17.904L103.507 17.6234ZM100.005 17.1142C99.2077 17.1142 98.4155 17.1357 97.6285 17.1788L97.6449 17.4784C98.4263 17.4356 99.2132 17.4142 100.005 17.4142V17.1142ZM97.6285 17.1788C96.8415 17.222 96.2061 17.2869 95.7246 17.3744L95.7783 17.6696C96.2422 17.5852 96.8636 17.5212 97.6449 17.4784L97.6285 17.1788ZM95.6015 17.522V27.3833H95.9015V17.522H95.6015Z" fill="white" mask="url(#path-3-outside-2_5607_379292)"/>
<line x1="0.525371" y1="47.5725" x2="111.002" y2="47.7296" stroke="white" stroke-width="2.54649"/>
<line x1="25.9888" y1="1.73518" x2="111" y2="1.73518" stroke="white" stroke-width="2.54649"/>
<line x1="0.523559" y1="1.73518" x2="22.5931" y2="1.73518" stroke="#24CFFF" stroke-width="2.54649"/>
</g>
</g>
<defs>
<clipPath id="clip0_5607_379292">
<rect width="111" height="49" fill="white"/>
</clipPath>
<clipPath id="clip1_5607_379292">
<rect width="111" height="49" fill="white"/>
</clipPath>
</defs>
</svg>
