<svg width="104" height="82" viewBox="0 0 104 82" fill="none" xmlns="http://www.w3.org/2000/svg">
<g clip-path="url(#clip0_6009_457786)">
<rect x="0.880981" y="10" width="72" height="72" fill="#92E7FF"/>
<path d="M103.521 39.938C102.402 37.488 99.355 36.334 96.439 37.261L91.141 38.926C93.034 35.26 94.068 31.212 94.068 27.029C94.068 12.675 82.398 1 68.05 1C53.708 1 42.038 12.676 42.038 27.029C42.038 27.785 42.112 28.524 42.175 29.263C38.951 29.945 35.695 32.213 33.762 33.765V32.946C33.762 30.678 31.92 28.831 29.652 28.831H22.996C20.728 28.831 18.881 30.679 18.881 32.946V56.929C18.881 59.197 20.729 61.044 22.996 61.044H29.652C31.921 61.044 33.762 59.196 33.762 56.929V55.883C38.407 57.776 59.535 66.257 65.481 66.257C65.509 66.257 65.539 66.257 65.561 66.257C70.551 66.194 83.131 58.265 95.581 50.142C97.502 48.891 99.1 47.851 100.185 47.174C104.01 44.804 104.413 41.882 103.521 39.938Z" fill="white"/>
<path d="M26.3199 50.5C24.4669 50.5 22.9609 52.007 22.9609 53.859C22.9609 55.713 24.4679 57.219 26.3199 57.219C28.1739 57.219 29.68 55.712 29.68 53.859C29.681 52.006 28.1739 50.5 26.3199 50.5ZM26.3199 55.036C25.6729 55.036 25.1429 54.508 25.1429 53.859C25.1429 53.212 25.6719 52.683 26.3199 52.683C26.9679 52.683 27.4969 53.211 27.4969 53.859C27.4969 54.507 26.9689 55.036 26.3199 55.036Z" fill="#1B2E32"/>
<path d="M103.521 39.938C102.402 37.488 99.355 36.334 96.439 37.261L91.141 38.926C93.034 35.26 94.068 31.212 94.068 27.029C94.068 12.675 82.398 1 68.05 1C53.708 1 42.038 12.676 42.038 27.029C42.038 27.785 42.112 28.524 42.175 29.263C38.951 29.945 35.695 32.213 33.762 33.765V32.946C33.762 30.678 31.92 28.831 29.652 28.831H22.996C20.728 28.831 18.881 30.679 18.881 32.946V56.929C18.881 59.197 20.729 61.044 22.996 61.044H29.652C31.921 61.044 33.762 59.196 33.762 56.929V55.883C38.407 57.776 59.535 66.257 65.481 66.257C65.509 66.257 65.539 66.257 65.561 66.257C70.551 66.194 83.131 58.265 95.581 50.142C97.502 48.891 99.1 47.851 100.185 47.174C104.01 44.804 104.413 41.882 103.521 39.938ZM68.05 3.911C80.795 3.911 91.157 14.279 91.157 27.029C91.157 31.622 89.815 36.056 87.274 39.853C87.207 39.956 87.1779 40.075 87.1379 40.182L84.4319 41.036C87.7349 37.165 89.6169 32.208 89.6169 27.029C89.6169 15.132 79.942 5.457 68.05 5.457C56.164 5.457 46.489 15.132 46.489 27.029C46.489 27.837 46.608 28.615 46.693 29.405C46.09 29.286 45.55 29.195 45.079 29.138C45.016 28.439 44.9479 27.744 44.9479 27.029C44.9479 14.279 55.312 3.911 68.05 3.911ZM75.8199 38.199L73.746 37.511C73.087 37.289 72.416 37.068 71.745 36.846C74.183 36.022 75.582 34.225 75.582 31.678C75.582 28.848 73.513 26.847 69.482 25.699V19.736C71.187 20.094 72.762 21.106 72.785 21.123C73.462 21.561 74.359 21.379 74.798 20.702C75.241 20.032 75.059 19.134 74.389 18.69C74.281 18.622 72.018 17.138 69.483 16.774V14.864C69.483 14.261 68.995 13.773 68.392 13.773C67.789 13.773 67.3 14.261 67.3 14.864V16.774C64.14 17.161 61.2 19.184 61.2 22.379C61.2 26.158 65.19 27.568 67.3 28.125V34.315C64.742 33.992 63.321 32.729 63.048 32.439C62.508 31.848 61.587 31.808 60.996 32.354C60.734 32.593 60.603 32.906 60.558 33.23C56.147 31.848 52.054 30.655 48.916 29.899C48.78 28.961 48.672 28.005 48.672 27.028C48.672 16.336 57.369 7.638 68.05 7.638C78.742 7.638 87.434 16.335 87.434 27.028C87.434 33.133 84.518 38.885 79.6349 42.541L78.123 43.013C78.157 42.877 78.208 42.735 78.23 42.598C78.561 40.501 77.6109 38.773 75.8199 38.199ZM67.3 25.056C65.196 24.363 64.111 23.488 64.111 22.379C64.111 20.856 65.755 19.997 67.3 19.713V25.056ZM69.483 28.728C72.302 29.678 72.672 30.843 72.672 31.678C72.672 32.298 72.638 34.043 69.483 34.378V28.728ZM31.579 56.929C31.579 57.997 30.7149 58.862 29.6509 58.862H22.995C21.927 58.862 21.062 57.998 21.062 56.929V32.946C21.062 31.878 21.926 31.013 22.995 31.013H29.6509C30.7139 31.013 31.579 31.877 31.579 32.946V56.929ZM98.65 44.702C97.547 45.39 95.933 46.441 93.995 47.703C86.235 52.763 70.092 63.29 65.527 63.347C60.752 63.427 41.299 55.838 34.194 52.916C34.052 52.859 33.91 52.843 33.762 52.831V37.522C33.859 37.465 33.961 37.425 34.04 37.346C35.62 35.845 40.48 31.951 43.926 31.951C47.864 31.951 66.652 38.21 72.825 40.267L74.929 40.966C75.411 41.119 75.423 41.694 75.355 42.148C75.145 43.473 73.8089 45.343 71.4839 45.343C66.8059 45.343 55.675 42.961 55.568 42.933C54.755 42.78 54.005 43.268 53.834 44.052C53.67 44.837 54.17 45.61 54.954 45.781C55.42 45.884 66.4989 48.254 71.4839 48.254C73.1319 48.254 74.5189 47.691 75.6169 46.85L97.314 40.035C98.962 39.517 100.446 40.212 100.878 41.149C101.366 42.207 100.531 43.537 98.65 44.702Z" fill="#1B2E32"/>
</g>
<defs>
<clipPath id="clip0_6009_457786">
<rect width="103.038" height="82" fill="white" transform="translate(0.880981)"/>
</clipPath>
</defs>
</svg>
