<svg width="94" height="82" viewBox="0 0 94 82" fill="none" xmlns="http://www.w3.org/2000/svg">
<g clip-path="url(#clip0_5769_382850)">
<rect y="10" width="72" height="72" fill="#92E7FF"/>
<path d="M76.3302 19.5597C70.9375 19.5597 66.5507 15.1721 66.5507 9.7803C66.5507 4.38851 70.9375 0 76.3302 0C81.7228 0 86.1105 4.38764 86.1105 9.7803C86.1105 15.173 81.7228 19.5597 76.3302 19.5597Z" fill="white"/>
<path d="M33.6698 23.9958C28.2771 23.9958 23.8903 19.6081 23.8903 14.2163C23.8903 8.82453 28.2771 4.43689 33.6698 4.43689C39.0624 4.43689 43.4492 8.82453 43.4492 14.2163C43.4492 19.6081 39.0624 23.9958 33.6698 23.9958Z" fill="white"/>
<path d="M24.5278 25.5778C25.9211 25.0744 27.4987 25.4299 28.5487 26.4807L32.8343 30.7654C32.8628 30.794 32.9009 30.8043 32.9311 30.8294C33.3645 31.1823 33.9742 31.1823 34.4075 30.8294C34.4387 30.8043 34.4759 30.794 34.5044 30.7654L38.79 26.4798C39.84 25.4299 41.4201 25.077 42.8109 25.5778C47.1199 27.1328 50.2145 30.8692 51.0353 35.2525C52.4995 35.8104 53.8488 36.6597 54.9991 37.785C56.0915 36.716 57.3603 35.89 58.7389 35.3312V33.1361C58.7389 27.7841 62.1337 22.964 67.1873 21.1408C68.5807 20.6374 70.1574 20.9938 71.2082 22.0438L75.4938 26.3285C75.9548 26.7886 76.7038 26.7886 77.1639 26.3285L81.4495 22.0429C82.4995 20.9938 84.0797 20.6409 85.4704 21.1408C90.5258 22.9657 93.9205 27.7858 93.9205 33.137V59.6402H65.928L57.029 68.5391L55.1461 70.422L54.9982 70.2741L54.8512 70.4212L52.9692 68.5391L44.0702 59.6402H16.0794V37.5731C16.0794 32.2219 19.4741 27.401 24.5278 25.5778Z" fill="white"/>
<path d="M76.3302 19.5597C70.9375 19.5597 66.5507 15.1721 66.5507 9.7803C66.5507 4.38851 70.9375 0 76.3302 0C81.7228 0 86.1105 4.38764 86.1105 9.7803C86.1105 15.173 81.7228 19.5597 76.3302 19.5597ZM76.3302 2.66217C72.4052 2.66217 69.212 5.85538 69.212 9.7803C69.212 13.7052 72.4052 16.8984 76.3302 16.8984C80.2551 16.8984 83.4483 13.7052 83.4483 9.7803C83.4483 5.85538 80.2551 2.66217 76.3302 2.66217Z" fill="#1B2E32"/>
<path d="M33.6698 23.9958C28.2771 23.9958 23.8903 19.6081 23.8903 14.2163C23.8903 8.82453 28.2771 4.43689 33.6698 4.43689C39.0624 4.43689 43.4492 8.82453 43.4492 14.2163C43.4492 19.6081 39.0624 23.9958 33.6698 23.9958ZM33.6698 7.09819C29.7449 7.09819 26.5516 10.2914 26.5516 14.2163C26.5516 18.1413 29.7449 21.3345 33.6698 21.3345C37.5947 21.3345 40.7879 18.1413 40.7879 14.2163C40.7879 10.2914 37.5947 7.09819 33.6698 7.09819Z" fill="#1B2E32"/>
<path d="M24.5278 25.5778C25.9211 25.0744 27.4987 25.4299 28.5487 26.4807L32.8343 30.7654C32.8628 30.794 32.9009 30.8043 32.9311 30.8294C33.3645 31.1823 33.9742 31.1823 34.4075 30.8294C34.4387 30.8043 34.4759 30.794 34.5044 30.7654L38.79 26.4798C39.84 25.4299 41.4202 25.077 42.8109 25.5778C47.1199 27.1328 50.2145 30.8692 51.0353 35.2525C52.4995 35.8104 53.8488 36.6597 54.9991 37.785C56.0915 36.716 57.3603 35.89 58.7389 35.3312V33.1361C58.7389 27.7841 62.1337 22.964 67.1873 21.1408C68.5807 20.6374 70.1574 20.9938 71.2082 22.0438L75.4938 26.3285C75.9548 26.7886 76.7038 26.7886 77.1639 26.3285L81.4495 22.0429C82.4995 20.9938 84.0797 20.6409 85.4704 21.1408C90.5258 22.9657 93.9205 27.7858 93.9205 33.137V59.6402H65.928L57.029 68.5391L55.1461 70.422L54.9982 70.2741L54.8512 70.4212L52.9692 68.5391L44.0702 59.6402H16.0794V37.5731C16.0794 32.2219 19.4741 27.401 24.5278 25.5778ZM18.7416 56.9789H41.4098L38.7009 54.27C34.1818 49.7509 34.1818 42.3966 38.7009 37.8775C40.8874 35.691 43.7986 34.4871 46.8967 34.4871C47.3119 34.4871 47.7218 34.513 48.1292 34.5554C47.1951 31.6078 44.9256 29.1706 41.9088 28.0816C41.4842 27.9277 40.9972 28.0384 40.6711 28.3627L36.3864 32.6475C34.8875 34.1463 32.4494 34.1455 30.9522 32.6475L26.6667 28.3627C26.3423 28.0384 25.858 27.9286 25.4298 28.0816C21.4297 29.5252 18.7407 33.3394 18.7407 37.5731V56.9789H18.7416ZM91.2584 56.9789V33.137C91.2584 28.9042 88.5694 25.0899 84.5692 23.6456C84.1437 23.4916 83.6567 23.6023 83.3315 23.9267L79.0468 28.2114C77.5479 29.7103 75.1098 29.7094 73.6126 28.2114L69.3271 23.9267C69.0027 23.6023 68.5184 23.4925 68.0903 23.6456C64.0901 25.0891 61.4011 28.9033 61.4011 33.137V34.6238C61.9607 34.5425 62.5263 34.4871 63.1024 34.4871C66.2013 34.4871 69.1117 35.691 71.2982 37.8775C75.8173 42.3966 75.8173 49.75 71.2982 54.27L68.5893 56.9789H91.2584ZM69.417 52.388C72.8982 48.9067 72.8982 43.2416 69.417 39.7604C67.676 38.0194 65.39 37.1493 63.1032 37.1493C60.8164 37.1493 58.5296 38.0194 56.7894 39.7604L55 41.5499L53.2105 39.7604C51.4694 38.0194 49.1835 37.1493 46.8967 37.1493C44.6099 37.1493 42.3231 38.0194 40.5829 39.7604C37.1017 43.2416 37.1017 48.9067 40.5829 52.388L54.8521 66.6571L55 66.5101L55.147 66.6571L69.417 52.388Z" fill="#1B2E32"/>
</g>
<defs>
<clipPath id="clip0_5769_382850">
<rect width="93.9205" height="82" fill="white"/>
</clipPath>
</defs>
</svg>
