<svg width="83" height="83" viewBox="0 0 83 83" fill="none" xmlns="http://www.w3.org/2000/svg">
<rect y="11" width="72" height="72" rx="2" fill="#92E7FF"/>
<path d="M80.7001 9.09282C70.4748 7.9737 60.646 5.01604 51.5305 0.299763C50.8171 -0.0999211 49.9451 -0.0999211 49.311 0.299763C40.1955 5.01604 30.3666 7.9737 20.1414 9.09282C18.8732 9.25269 18.0012 10.2919 18.0012 11.5709C18.0012 13.7292 18.0012 18.9251 18.0012 30.9156C17.922 41.7071 21.6474 52.3387 28.2265 60.812C33.3787 67.6866 40.354 72.8025 48.4391 75.6003C49.0732 75.8401 49.7866 76 50.5 76C51.1341 76 51.8475 75.8401 52.5609 75.6003C60.646 72.7226 67.6213 67.6066 72.6943 60.812C79.3526 52.3387 83.078 41.7071 82.9988 30.9156C82.9988 18.9251 82.9988 13.7292 82.9988 11.5709C82.8402 10.3718 81.889 9.33263 80.7001 9.09282Z" fill="white"/>
<path d="M45.7065 39.9261L45.7832 39.3158L45.273 38.9721C42.6283 37.1902 41 34.2898 41 31.2979C41 26.2282 45.5214 22 51.0827 22C56.6238 22 61 26.2094 61 31.2979C61 34.3749 59.3665 37.2646 56.7426 38.9618L56.2152 39.3029L56.2935 39.9261L57.6143 50.438C57.6658 51.0759 57.4392 51.7257 56.9715 52.222L56.9488 52.2461L56.9277 52.2716C56.5795 52.6939 55.8999 53 55.1353 53H46.8647C46.2118 53 45.4888 52.7104 45.0285 52.222L45.0083 52.2005L44.9869 52.1803C44.4652 51.6883 44.274 51.0829 44.3757 50.5073L44.3801 50.4828L44.3832 50.458L45.7065 39.9261ZM53.7643 37.2215L53.7879 37.2122L53.811 37.2018C56.2015 36.1194 57.7895 33.8338 57.7895 31.2979C57.7895 27.676 54.6677 24.7589 51.1654 24.7589C47.4434 24.7589 44.2932 27.6488 44.2932 31.2979C44.2932 33.8899 45.8606 36.1902 48.2757 37.2039C48.8989 37.5066 49.188 38.1065 49.1033 38.6263L49.1004 38.6439L49.0981 38.6617L47.7748 49.1155L47.6324 50.2411H48.7669H53.3158H54.4504L54.3079 49.1155L52.9846 38.6617L52.983 38.6496L52.9812 38.6375C52.8835 37.9924 53.2194 37.4356 53.7643 37.2215Z" stroke="#004C61" stroke-width="2"/>
<path d="M51.0417 1.17217L51.0562 1.18029L51.0709 1.18793C60.2816 5.95344 70.2122 8.94477 80.5411 10.0814C81.2664 10.2459 81.8742 10.8967 81.9988 11.6442V11.648V11.6611V11.6743V11.6875V11.7008V11.7142V11.7277V11.7412V11.7548V11.7685V11.7822V11.796V11.8099V11.8239V11.8379V11.852V11.8662V11.8805V11.8948V11.9092V11.9237V11.9382V11.9528V11.9675V11.9823V11.9971V12.0121V12.0271V12.0421V12.0573V12.0725V12.0878V12.1032V12.1186V12.1341V12.1497V12.1654V12.1812V12.197V12.2129V12.2289V12.2449V12.2611V12.2773V12.2936V12.31V12.3264V12.3429V12.3595V12.3762V12.393V12.4098V12.4268V12.4438V12.4608V12.478V12.4952V12.5126V12.53V12.5474V12.565V12.5826V12.6004V12.6182V12.636V12.654V12.6721V12.6902V12.7084V12.7267V12.7451V12.7635V12.7821V12.8007V12.8194V12.8382V12.857V12.876V12.895V12.9142V12.9334V12.9526V12.972V12.9915V13.011V13.0306V13.0504V13.0701V13.09V13.11V13.13V13.1502V13.1704V13.1907V13.2111V13.2316V13.2522V13.2728V13.2936V13.3144V13.3353V13.3563V13.3774V13.3986V13.4198V13.4412V13.4626V13.4842V13.5058V13.5275V13.5493V13.5712V13.5932V13.6152V13.6374V13.6596V13.6819V13.7044V13.7269V13.7495V13.7722V13.795V13.8178V13.8408V13.8639V13.887V13.9103V13.9336V13.957V13.9805V14.0041V14.0278V14.0516V14.0755V14.0995V14.1236V14.1477V14.172V14.1964V14.2208V14.2453V14.27V14.2947V14.3195V14.3444V14.3695V14.3946V14.4198V14.4451V14.4705V14.4959V14.5215V14.5472V14.573V14.5989V14.6248V14.6509V14.677V14.7033V14.7297V14.7561V14.7827V14.8093V14.8361V14.8629V14.8898V14.9169V14.944V14.9713V14.9986V15.026V15.0536V15.0812V15.1089V15.1368V15.1647V15.1927V15.2209V15.2491V15.2774V15.3058V15.3344V15.363V15.3918V15.4206V15.4495V15.4786V15.5077V15.537V15.5663V15.5957V15.6253V15.655V15.6847V15.7146V15.7445V15.7746V15.8048V15.835V15.8654V15.8959V15.9265V15.9572V15.988V16.0189V16.0499V16.081V16.1122V16.1435V16.1749V16.2064V16.2381V16.2698V16.3017V16.3336V16.3657V16.3978V16.4301V16.4625V16.495V16.5276V16.5603V16.5931V16.626V16.659V16.6922V16.7254V16.7588V16.7922V16.8258V16.8595V16.8932V16.9271V16.9611V16.9953V17.0295V17.0638V17.0983V17.1328V17.1675V17.2023V17.2372V17.2721V17.3073V17.3425V17.3778V17.4133V17.4488V17.4845V17.5203V17.5561V17.5922V17.6283V17.6645V17.7008V17.7373V17.7739V17.8106V17.8473V17.8843V17.9213V17.9584V17.9957V18.033V18.0705V18.1081V18.1458V18.1837V18.2216V18.2597V18.2978V18.3361V18.3745V18.4131V18.4517V18.4905V18.5293V18.5683V18.6074V18.6466V18.686V18.7254V18.765V18.8047V18.8445V18.8845V18.9245V18.9647V19.005V19.0454V19.0859V19.1265V19.1673V19.2082V19.2492V19.2903V19.3315V19.3729V19.4144V19.456V19.4977V19.5396V19.5815V19.6236V19.6658V19.7081V19.7506V19.7932V19.8359V19.8787V19.9216V19.9647V20.0079V20.0512V20.0946V20.1382V20.1818V20.2256V20.2696V20.3136V20.3578V20.4021V20.4465V20.4911V20.5357V20.5805V20.6255V20.6705V20.7157V20.761V20.8064V20.852V20.8976V20.9434V20.9894V21.0354V21.0816V21.1279V21.1743V21.2209V21.2676V21.3144V21.3614V21.4084V21.4556V21.503V21.5504V21.598V21.6457V21.6936V21.7416V21.7897V21.8379V21.8863V21.9348V21.9834V22.0321V22.081V22.13V22.1792V22.2285V22.2779V22.3274V22.3771V22.4269V22.4768V22.5269V22.5771V22.6274V22.6779V22.7285V22.7792V22.83V22.881V22.9322V22.9834V23.0348V23.0863V23.138V23.1898V23.2417V23.2938V23.346V23.3983V23.4508V23.5034V23.5561V23.609V23.662V23.7151V23.7684V23.8218V23.8754V23.9291V23.9829V24.0369V24.091V24.1452V24.1996V24.2541V24.3087V24.3635V24.4184V24.4735V24.5287V24.584V24.6395V24.6951V24.7509V24.8068V24.8628V24.919V24.9753V25.0317V25.0883V25.145V25.2019V25.2589V25.3161V25.3734V25.4308V25.4884V25.5461V25.6039V25.6619V25.7201V25.7784V25.8368V25.8954V25.9541V26.0129V26.0719V26.131V26.1903V26.2497V26.3093V26.369V26.4289V26.4889V26.549V26.6093V26.6697V26.7303V26.791V26.8519V26.9129V26.9741V27.0354V27.0968V27.1584V27.2201V27.282V27.3441V27.4062V27.4686V27.531V27.5936V27.6564V27.7193V27.7824V27.8456V27.9089V27.9725V28.0361V28.0999V28.1638V28.2279V28.2922V28.3566V28.4211V28.4858V28.5507V28.6157V28.6808V28.7461V28.8115V28.8771V28.9429V29.0088V29.0748V29.141V29.2073V29.2738V29.3405V29.4073V29.4742V29.5413V29.6086V29.676V29.7436V29.8113V29.8792V29.9472V30.0153V30.0837V30.1521V30.2208V30.2896V30.3585V30.4276V30.4969V30.5663V30.6358V30.7055V30.7754V30.8454L81.9987 30.9156L81.9988 30.9229C82.0763 41.4823 78.4297 51.8946 71.908 60.1941L71.9004 60.2038L71.893 60.2137C66.9418 66.8453 60.1329 71.8419 52.2342 74.6551C51.5742 74.8764 50.9796 75 50.5 75C49.931 75 49.3382 74.8712 48.7928 74.665L48.7795 74.6599L48.7661 74.6553C40.8718 71.9235 34.0605 66.9288 29.0267 60.2123L29.0216 60.2054L29.0163 60.1987C22.5706 51.8971 18.9236 41.4827 19.0012 30.9229H19.0012V30.9156V30.8454V30.7754V30.7055V30.6358V30.5663V30.4969V30.4276V30.3585V30.2896V30.2208V30.1521V30.0837V30.0153V29.9472V29.8792V29.8113V29.7436V29.676V29.6086V29.5413V29.4742V29.4073V29.3405V29.2738V29.2073V29.141V29.0748V29.0088V28.9429V28.8771V28.8115V28.7461V28.6808V28.6157V28.5507V28.4858V28.4211V28.3566V28.2922V28.2279V28.1638V28.0999V28.0361V27.9725V27.9089V27.8456V27.7824V27.7193V27.6564V27.5936V27.531V27.4686V27.4062V27.3441V27.282V27.2201V27.1584V27.0968V27.0354V26.9741V26.9129V26.8519V26.791V26.7303V26.6697V26.6093V26.549V26.4889V26.4289V26.369V26.3093V26.2497V26.1903V26.131V26.0719V26.0129V25.9541V25.8954V25.8368V25.7784V25.7201V25.6619V25.6039V25.5461V25.4884V25.4308V25.3734V25.3161V25.2589V25.2019V25.145V25.0883V25.0317V24.9753V24.919V24.8628V24.8068V24.7509V24.6951V24.6395V24.584V24.5287V24.4735V24.4184V24.3635V24.3087V24.2541V24.1996V24.1452V24.091V24.0369V23.9829V23.9291V23.8754V23.8218V23.7684V23.7151V23.662V23.609V23.5561V23.5034V23.4508V23.3983V23.346V23.2938V23.2417V23.1898V23.138V23.0863V23.0348V22.9834V22.9322V22.881V22.83V22.7792V22.7285V22.6779V22.6274V22.5771V22.5269V22.4768V22.4269V22.3771V22.3274V22.2779V22.2285V22.1792V22.13V22.081V22.0321V21.9834V21.9348V21.8863V21.8379V21.7897V21.7416V21.6936V21.6457V21.598V21.5504V21.503V21.4556V21.4084V21.3614V21.3144V21.2676V21.2209V21.1743V21.1279V21.0816V21.0354V20.9894V20.9434V20.8976V20.852V20.8064V20.761V20.7157V20.6705V20.6255V20.5805V20.5357V20.4911V20.4465V20.4021V20.3578V20.3136V20.2696V20.2256V20.1818V20.1382V20.0946V20.0512V20.0079V19.9647V19.9216V19.8787V19.8359V19.7932V19.7506V19.7081V19.6658V19.6236V19.5815V19.5396V19.4977V19.456V19.4144V19.3729V19.3315V19.2903V19.2492V19.2082V19.1673V19.1265V19.0859V19.0454V19.005V18.9647V18.9245V18.8845V18.8445V18.8047V18.765V18.7254V18.686V18.6466V18.6074V18.5683V18.5293V18.4905V18.4517V18.4131V18.3745V18.3361V18.2978V18.2597V18.2216V18.1837V18.1458V18.1081V18.0705V18.033V17.9957V17.9584V17.9213V17.8843V17.8473V17.8106V17.7739V17.7373V17.7008V17.6645V17.6283V17.5922V17.5561V17.5203V17.4845V17.4488V17.4133V17.3778V17.3425V17.3073V17.2721V17.2372V17.2023V17.1675V17.1328V17.0983V17.0638V17.0295V16.9953V16.9611V16.9271V16.8932V16.8595V16.8258V16.7922V16.7588V16.7254V16.6922V16.659V16.626V16.5931V16.5603V16.5276V16.495V16.4625V16.4301V16.3978V16.3657V16.3336V16.3017V16.2698V16.2381V16.2064V16.1749V16.1435V16.1122V16.081V16.0499V16.0189V15.988V15.9572V15.9265V15.8959V15.8654V15.835V15.8048V15.7746V15.7445V15.7146V15.6847V15.655V15.6253V15.5957V15.5663V15.537V15.5077V15.4786V15.4495V15.4206V15.3918V15.363V15.3344V15.3058V15.2774V15.2491V15.2209V15.1927V15.1647V15.1368V15.1089V15.0812V15.0536V15.026V14.9986V14.9713V14.944V14.9169V14.8898V14.8629V14.8361V14.8093V14.7827V14.7561V14.7297V14.7033V14.677V14.6509V14.6248V14.5989V14.573V14.5472V14.5215V14.4959V14.4705V14.4451V14.4198V14.3946V14.3695V14.3444V14.3195V14.2947V14.27V14.2453V14.2208V14.1964V14.172V14.1477V14.1236V14.0995V14.0755V14.0516V14.0278V14.0041V13.9805V13.957V13.9336V13.9103V13.887V13.8639V13.8408V13.8178V13.795V13.7722V13.7495V13.7269V13.7044V13.6819V13.6596V13.6374V13.6152V13.5932V13.5712V13.5493V13.5275V13.5058V13.4842V13.4626V13.4412V13.4198V13.3986V13.3774V13.3563V13.3353V13.3144V13.2936V13.2728V13.2522V13.2316V13.2111V13.1907V13.1704V13.1502V13.13V13.11V13.09V13.0701V13.0504V13.0306V13.011V12.9915V12.972V12.9526V12.9334V12.9142V12.895V12.876V12.857V12.8382V12.8194V12.8007V12.7821V12.7635V12.7451V12.7267V12.7084V12.6902V12.6721V12.654V12.636V12.6182V12.6004V12.5826V12.565V12.5474V12.53V12.5126V12.4952V12.478V12.4608V12.4438V12.4268V12.4098V12.393V12.3762V12.3595V12.3429V12.3264V12.31V12.2936V12.2773V12.2611V12.2449V12.2289V12.2129V12.197V12.1812V12.1654V12.1497V12.1341V12.1186V12.1032V12.0878V12.0725V12.0573V12.0421V12.0271V12.0121V11.9971V11.9823V11.9675V11.9528V11.9382V11.9237V11.9092V11.8948V11.8805V11.8662V11.852V11.8379V11.8239V11.8099V11.796V11.7822V11.7685V11.7548V11.7412V11.7277V11.7142V11.7008V11.6875V11.6743V11.6611V11.648V11.635V11.622V11.6091V11.5963V11.5835V11.5709C19.0012 10.7724 19.5202 10.1824 20.2594 10.0859C30.6029 8.95269 40.5477 5.95975 49.7706 1.18793L49.8083 1.1684L49.8442 1.14574C50.1351 0.962418 50.6123 0.931611 51.0417 1.17217ZM22.7053 12.7378L21.8364 12.8527V13.7292V13.7461V13.763V13.78V13.797V13.8141V13.8313V13.8485V13.8658V13.8831V13.9005V13.9179V13.9354V13.9529V13.9705V13.9881V14.0058V14.0235V14.0413V14.0592V14.0771V14.0951V14.1131V14.1312V14.1493V14.1675V14.1857V14.204V14.2224V14.2408V14.2592V14.2777V14.2963V14.3149V14.3336V14.3523V14.3711V14.39V14.4089V14.4278V14.4469V14.4659V14.485V14.5042V14.5235V14.5428V14.5621V14.5815V14.601V14.6205V14.6401V14.6597V14.6794V14.6991V14.7189V14.7388V14.7587V14.7787V14.7987V14.8188V14.839V14.8592V14.8794V14.8997V14.9201V14.9405V14.961V14.9816V15.0022V15.0228V15.0436V15.0644V15.0852V15.1061V15.127V15.1481V15.1691V15.1903V15.2114V15.2327V15.254V15.2754V15.2968V15.3183V15.3398V15.3614V15.3831V15.4048V15.4266V15.4484V15.4703V15.4923V15.5143V15.5363V15.5585V15.5807V15.6029V15.6252V15.6476V15.6701V15.6925V15.7151V15.7377V15.7604V15.7831V15.8059V15.8288V15.8517V15.8747V15.8977V15.9208V15.944V15.9672V15.9905V16.0138V16.0372V16.0607V16.0842V16.1078V16.1315V16.1552V16.179V16.2028V16.2267V16.2506V16.2747V16.2988V16.3229V16.3471V16.3714V16.3957V16.4201V16.4446V16.4691V16.4937V16.5183V16.543V16.5678V16.5926V16.6175V16.6425V16.6675V16.6926V16.7177V16.7429V16.7682V16.7936V16.819V16.8444V16.8699V16.8955V16.9212V16.9469V16.9727V16.9985V17.0245V17.0504V17.0765V17.1026V17.1287V17.155V17.1813V17.2076V17.2341V17.2606V17.2871V17.3137V17.3404V17.3672V17.394V17.4209V17.4478V17.4748V17.5019V17.5291V17.5563V17.5835V17.6109V17.6383V17.6658V17.6933V17.7209V17.7486V17.7763V17.8041V17.832V17.8599V17.8879V17.916V17.9441V17.9723V18.0006V18.0289V18.0573V18.0858V18.1143V18.1429V18.1716V18.2003V18.2291V18.258V18.2869V18.3159V18.345V18.3741V18.4033V18.4326V18.462V18.4914V18.5208V18.5504V18.58V18.6097V18.6394V18.6692V18.6991V18.7291V18.7591V18.7892V18.8194V18.8496V18.8799V18.9103V18.9407V18.9712V19.0018V19.0324V19.0631V19.0939V19.1248V19.1557V19.1867V19.2177V19.2489V19.2801V19.3113V19.3427V19.3741V19.4056V19.4371V19.4687V19.5004V19.5322V19.564V19.5959V19.6279V19.6599V19.692V19.7242V19.7565V19.7888V19.8212V19.8537V19.8862V19.9188V19.9515V19.9842V20.0171V20.05V20.0829V20.116V20.1491V20.1822V20.2155V20.2488V20.2822V20.3157V20.3492V20.3828V20.4165V20.4503V20.4841V20.518V20.552V20.586V20.6201V20.6543V20.6886V20.7229V20.7573V20.7918V20.8264V20.861V20.8957V20.9305V20.9653V21.0003V21.0353V21.0703V21.1055V21.1407V21.176V21.2113V21.2468V21.2823V21.3179V21.3535V21.3893V21.4251V21.461V21.4969V21.533V21.5691V21.6053V21.6415V21.6778V21.7142V21.7507V21.7873V21.8239V21.8606V21.8974V21.9343V21.9712V22.0082V22.0453V22.0824V22.1197V22.157V22.1944V22.2318V22.2694V22.307V22.3447V22.3824V22.4203V22.4582V22.4962V22.5343V22.5724V22.6106V22.6489V22.6873V22.7258V22.7643V22.8029V22.8416V22.8804V22.9192V22.9581V22.9971V23.0362V23.0753V23.1146V23.1539V23.1932V23.2327V23.2722V23.3119V23.3515V23.3913V23.4312V23.4711V23.5111V23.5512V23.5913V23.6316V23.6719V23.7123V23.7528V23.7933V23.834V23.8747V23.9155V23.9563V23.9973V24.0383V24.0794V24.1206V24.1619V24.2032V24.2446V24.2861V24.3277V24.3694V24.4111V24.453V24.4949V24.5369V24.5789V24.6211V24.6633V24.7056V24.748V24.7904V24.833V24.8756V24.9183V24.9611V25.004V25.0469V25.09V25.1331V25.1763V25.2195V25.2629V25.3063V25.3498V25.3934V25.4371V25.4809V25.5247V25.5686V25.6127V25.6567V25.7009V25.7452V25.7895V25.8339V25.8784V25.923V25.9677V26.0124V26.0572V26.1022V26.1471V26.1922V26.2374V26.2826V26.328V26.3734V26.4189V26.4644V26.5101V26.5558V26.6016V26.6476V26.6935V26.7396V26.7858V26.832V26.8784V26.9248V26.9713V27.0178V27.0645V27.1112V27.1581V27.205V27.252V27.2991V27.3462V27.3935V27.4408V27.4882V27.5358V27.5833V27.631V27.6788V27.7266V27.7746V27.8226V27.8707V27.9189V27.9671V28.0155V28.0639V28.1125V28.1611V28.2098V28.2586V28.3075V28.3564V28.4055V28.4546V28.5038V28.5531V28.6025V28.652V28.7015V28.7512V28.8009V28.8507V28.9007V28.9507V29.0007V29.0509V29.1012V29.1515V29.2019V29.2525V29.3031V29.3538V29.4045V29.4554V29.5064V29.5574V29.6085V29.6598V29.7111V29.7625V29.814V29.8655V29.9172V29.9689V30.0208V30.0727V30.1247V30.1768V30.229V30.2813V30.3337V30.3861V30.4387V30.4913V30.544V30.5968V30.6497V30.7027V30.7558V30.809V30.8623V30.9116C21.7563 40.8885 25.1598 50.6135 31.2342 58.3786C35.8535 64.6662 42.2439 69.3261 49.5209 71.8751C50.0307 72.1535 50.6522 72.1535 51.162 71.8751C58.4435 69.3242 64.7502 64.6635 69.4422 58.467C75.601 50.6991 79.0059 40.9704 78.9258 30.9917C78.9258 21.8722 78.9259 16.696 79.0047 13.756L79.0288 12.8559L78.1362 12.7378C68.5795 11.4739 59.4899 8.6299 50.8644 4.35967L50.4187 4.13902L49.9738 4.36129C41.4314 8.62914 32.264 11.4736 22.7053 12.7378Z" stroke="#004C61" stroke-width="2"/>
</svg>
