<svg width="88" height="82" viewBox="0 0 88 82" fill="none" xmlns="http://www.w3.org/2000/svg">
<rect x="0.350105" y="10" width="72" height="72" fill="#92E7FF"/>
<path d="M16 23L23.5 1H79L86.5 24C86 28.5 83 29.5 83 29.5H19.5C19.5 29.5 16 28.5 16 23Z" fill="white"/>
<path d="M82.279 60.7948H19.7454C19.2367 60.7948 18.8244 60.3825 18.8244 59.8739V23.1273C18.8244 22.6186 19.2367 22.2063 19.7454 22.2063H82.279C82.7877 22.2063 83.2 22.6186 83.2 23.1273V59.8739C83.2 60.1181 83.103 60.3524 82.9303 60.5251C82.7575 60.6978 82.5233 60.7948 82.279 60.7948Z" fill="white"/>
<path d="M82.279 60.7948H19.7454C19.2367 60.7948 18.8244 60.3825 18.8244 59.8739V23.1273C18.8244 22.6186 19.2367 22.2063 19.7454 22.2063H82.279C82.7877 22.2063 83.2 22.6186 83.2 23.1273V59.8739C83.2 60.1181 83.103 60.3524 82.9303 60.5251C82.7575 60.6978 82.5233 60.7948 82.279 60.7948ZM20.6663 58.9529H81.3581V24.0482H20.6663V58.9529Z" fill="#1B2E32"/>
<path d="M45.4735 60.7949H30.0013C29.4926 60.7949 29.0803 60.3826 29.0803 59.8739V35.4315C29.0793 35.1869 29.176 34.9521 29.3489 34.7792C29.5219 34.6062 29.7567 34.5095 30.0013 34.5105H45.4735C45.7181 34.5095 45.9529 34.6062 46.1258 34.7792C46.2987 34.9521 46.3955 35.1869 46.3945 35.4315V59.8739C46.3945 60.3826 45.9821 60.7949 45.4735 60.7949ZM30.9112 58.953H44.5415V36.3524H30.9112V58.953Z" fill="#1B2E32"/>
<path d="M73.6514 52.3331H53.8322C53.3236 52.3331 52.9112 51.9207 52.9112 51.4121V35.4315C52.9102 35.1869 53.007 34.9521 53.1799 34.7792C53.3528 34.6062 53.5876 34.5095 53.8322 34.5105H73.6514C73.896 34.5095 74.1308 34.6062 74.3037 34.7792C74.4767 34.9521 74.5734 35.1869 74.5724 35.4315V51.401C74.5753 51.6472 74.4796 51.8843 74.3066 52.0594C74.1335 52.2345 73.8976 52.3331 73.6514 52.3331ZM54.7532 50.4911H72.7305V36.3524H54.7532V50.4911Z" fill="#1B2E32"/>
<path d="M41.3476 49.3195C40.4315 49.2973 39.7048 48.5406 39.7195 47.6244C39.7343 46.7082 40.485 45.9752 41.4013 45.9825C42.3176 45.9897 43.0566 46.7344 43.0569 47.6507C43.0448 48.5832 42.28 49.3298 41.3476 49.3195ZM41.3476 47.4776C41.2776 47.4776 41.215 47.5586 41.215 47.6507C41.215 47.7428 41.2776 47.8239 41.3476 47.8239C41.4176 47.8239 41.4802 47.7428 41.4802 47.6507C41.4802 47.5586 41.4176 47.4776 41.3476 47.4776Z" fill="#1B2E32"/>
<path d="M29.9902 24.048H15.9141C15.6244 24.0474 15.3517 23.9111 15.1774 23.6796C15.0032 23.4432 14.9538 23.1373 15.0447 22.8581L22.0736 0.651735C22.1953 0.270144 22.5498 0.0110114 22.9503 0.0107422H34.2119C34.4887 0.0109304 34.7508 0.13508 34.9263 0.349091C35.1018 0.563101 35.1722 0.844467 35.1181 1.1159L30.8927 23.3002C30.8112 23.7342 30.4318 24.0485 29.9902 24.048ZM17.1703 22.2061H29.2276L33.0994 1.85268H23.6245L17.1703 22.2061Z" fill="#1B2E32"/>
<path d="M22.9614 31.4197C18.5705 31.4197 15.0087 27.8644 15.0005 23.4736V23.1273C15.0005 22.6186 15.4129 22.2063 15.9215 22.2063H29.9902C30.4988 22.2063 30.9112 22.6186 30.9112 23.1273V23.4736C30.9051 27.861 27.3488 31.4156 22.9614 31.4197ZM16.8609 24.0519C17.1694 27.1838 19.8032 29.571 22.9503 29.571C26.0974 29.571 28.7312 27.1838 29.0398 24.0519H16.8609Z" fill="#1B2E32"/>
<path d="M44.0663 24.0484H29.9902C29.7125 24.051 29.4486 23.9276 29.2725 23.7128C29.0964 23.4981 29.0271 23.2151 29.084 22.9433L33.3057 0.758991C33.3948 0.329557 33.7733 0.0218051 34.2119 0.0222172H45.4735C45.7276 0.022594 45.9702 0.127908 46.144 0.313243C46.3186 0.498453 46.4081 0.74814 46.3908 1.00213L44.9835 23.1974C44.9487 23.678 44.5481 24.0497 44.0663 24.0484ZM31.1027 22.2065H43.2006L44.4899 1.8531H34.9745L31.1027 22.2065Z" fill="#1B2E32"/>
<path d="M37.0374 31.4197C32.6437 31.4237 29.0774 27.8673 29.0692 23.4736V23.1273C29.0692 22.6186 29.4816 22.2063 29.9902 22.2063H44.0663C44.5749 22.2063 44.9872 22.6186 44.9872 23.1273V23.4736C44.9811 27.861 41.4249 31.4156 37.0374 31.4197ZM30.937 24.0519C31.2455 27.1838 33.8793 29.571 37.0264 29.571C40.1735 29.571 42.8073 27.1838 43.1158 24.0519H30.937Z" fill="#1B2E32"/>
<path d="M58.1386 24.0482H44.0663C43.8114 24.0488 43.5678 23.9437 43.3933 23.758C43.2188 23.5723 43.129 23.3226 43.1453 23.0683L44.5525 0.873012C44.5854 0.388364 44.9877 0.0118063 45.4735 0.0109863H56.7314C57.2172 0.0118063 57.6195 0.388364 57.6524 0.873012L59.0596 23.0683C59.0759 23.3226 58.9861 23.5723 58.8116 23.758C58.6371 23.9437 58.3935 24.0488 58.1386 24.0482ZM45.0462 22.2063H57.1587L55.8694 1.85292H46.3355L45.0462 22.2063Z" fill="#1B2E32"/>
<path d="M51.1025 31.4197C46.7087 31.4237 43.1424 27.8673 43.1342 23.4736V23.1273C43.1342 22.6186 43.5466 22.2063 44.0552 22.2063H58.1276C58.6362 22.2063 59.0486 22.6186 59.0486 23.1273V23.4736C59.0425 27.8595 55.4884 31.4136 51.1025 31.4197ZM45.002 24.0519C45.3105 27.1838 47.9443 29.571 51.0914 29.571C54.2385 29.571 56.8723 27.1838 57.1808 24.0519H45.002Z" fill="#1B2E32"/>
<path d="M72.2147 24.0482H58.1386C57.6529 24.0491 57.2506 23.6711 57.2214 23.1862L55.8141 0.990896C55.7968 0.736909 55.8863 0.487223 56.0609 0.302012C56.2347 0.116677 56.4773 0.0113635 56.7314 0.0109867H67.993C68.4316 0.0105746 68.8101 0.318326 68.8992 0.747761L73.1209 22.9468C73.1778 23.2186 73.1085 23.5016 72.9324 23.7163C72.7563 23.9311 72.4924 24.0545 72.2147 24.0519V24.0482ZM59.0044 22.2063H71.1022L67.2304 1.85292H57.7334L59.0044 22.2063Z" fill="#1B2E32"/>
<path d="M65.1859 31.4197C60.7921 31.4237 57.2258 27.8673 57.2177 23.4736V23.1273C57.2177 22.6186 57.63 22.2063 58.1386 22.2063H72.2147C72.7233 22.2063 73.1357 22.6186 73.1357 23.1273V23.4736C73.1296 27.861 69.5733 31.4156 65.1859 31.4197ZM59.0891 24.0519C59.3976 27.1838 62.0314 29.571 65.1785 29.571C68.3256 29.571 70.9595 27.1838 71.268 24.0519H59.0891Z" fill="#1B2E32"/>
<path d="M86.2908 24.0483H72.2147C71.7765 24.0498 71.3984 23.7412 71.3122 23.3115L67.0868 1.10516C67.0327 0.833725 67.1031 0.552359 67.2786 0.338349C67.4541 0.124338 67.7162 0.000188176 67.993 0H79.2546C79.6551 0.00026921 80.0096 0.259402 80.1314 0.640993L87.1675 22.84C87.2585 23.1192 87.2091 23.4251 87.0349 23.6615C86.863 23.902 86.5864 24.0457 86.2908 24.0483ZM72.9773 22.2064H85.0346L78.5804 1.85299H69.1055L72.9773 22.2064Z" fill="#1B2E32"/>
<path d="M79.262 31.4197C74.8682 31.4237 71.3019 27.8673 71.2937 23.4736V23.1273C71.2937 22.6186 71.7061 22.2063 72.2147 22.2063H86.2908C86.7994 22.2063 87.2117 22.6186 87.2117 23.1273V23.4736C87.2057 27.861 83.6494 31.4156 79.262 31.4197ZM73.1651 24.0519C73.4737 27.1838 76.1075 29.571 79.2546 29.571C82.4017 29.571 85.0355 27.1838 85.344 24.0519H73.1651Z" fill="#1B2E32"/>
</svg>
