<svg width="95" height="82" viewBox="0 0 95 82" fill="none" xmlns="http://www.w3.org/2000/svg">
<g clip-path="url(#clip0_6009_457744)">
<rect x="0.780029" y="10" width="72" height="72" fill="#92E7FF"/>
<g clip-path="url(#clip1_6009_457744)">
<rect x="25" y="3" width="70" height="51" rx="8" fill="white"/>
<path d="M32.0295 3C28.1566 3 25 6.1404 25 10.0023V16.7371V25.4316V46.9904C25 50.8523 28.1566 54 32.0295 54H87.9681C91.8409 54 95 50.8523 95 46.9904V25.4316V16.7371V10.0023C95 6.1404 91.8409 3 87.9681 3H32.0295ZM32.0295 5.4897H87.9681C90.5009 5.4897 92.5032 7.47663 92.5032 10.0023V15.4874H27.4968V10.0023C27.4968 7.47663 29.4967 5.4897 32.0295 5.4897ZM27.4968 17.9795H92.5032V24.1819H27.4968V17.9795ZM27.4968 26.6716H92.5032V46.9904C92.5032 49.5161 90.5009 51.5103 87.9681 51.5103H32.0295C29.4967 51.5103 27.4968 49.5161 27.4968 46.9904V26.6716ZM35.1358 34.8872C34.9696 34.8835 34.8042 34.913 34.6495 34.9739C34.4949 35.0348 34.3539 35.1259 34.235 35.2418C34.1161 35.3578 34.0216 35.4963 33.9572 35.6491C33.8927 35.802 33.8594 35.9662 33.8594 36.132C33.8594 36.2979 33.8927 36.462 33.9572 36.6149C34.0216 36.7677 34.1161 36.9062 34.235 37.0222C34.3539 37.1381 34.4949 37.2293 34.6495 37.2902C34.8042 37.3511 34.9696 37.3805 35.1358 37.3769H50.848C51.1743 37.3696 51.4848 37.2353 51.713 37.0026C51.9412 36.77 52.069 36.4575 52.069 36.132C52.069 35.8066 51.9412 35.494 51.713 35.2614C51.4848 35.0287 51.1743 34.8944 50.848 34.8872H35.1358ZM35.1358 41.6147C34.9696 41.611 34.8042 41.6405 34.6496 41.7014C34.4949 41.7623 34.3539 41.8534 34.235 41.9694C34.1162 42.0853 34.0217 42.2238 33.9572 42.3767C33.8927 42.5295 33.8595 42.6937 33.8595 42.8596C33.8595 43.0254 33.8927 43.1896 33.9572 43.3424C34.0217 43.4953 34.1162 43.6338 34.235 43.7497C34.3539 43.8657 34.4949 43.9568 34.6496 44.0177C34.8042 44.0786 34.9696 44.1081 35.1358 44.1044H41.8459C42.0122 44.1081 42.1775 44.0786 42.3322 44.0177C42.4869 43.9568 42.6278 43.8657 42.7467 43.7497C42.8656 43.6338 42.9601 43.4953 43.0246 43.3424C43.0891 43.1896 43.1223 43.0254 43.1223 42.8596C43.1223 42.6937 43.0891 42.5295 43.0246 42.3767C42.9601 42.2238 42.8656 42.0853 42.7467 41.9694C42.6278 41.8534 42.4869 41.7623 42.3322 41.7014C42.1775 41.6405 42.0122 41.611 41.8459 41.6147H35.1358Z" fill="#1B2E32"/>
</g>
</g>
<defs>
<clipPath id="clip0_6009_457744">
<rect width="94.04" height="82" fill="white" transform="translate(0.780029)"/>
</clipPath>
<clipPath id="clip1_6009_457744">
<rect x="25" y="3" width="70" height="51" rx="8" fill="white"/>
</clipPath>
</defs>
</svg>
