<svg width="94" height="82" viewBox="0 0 94 82" fill="none" xmlns="http://www.w3.org/2000/svg">
<g clip-path="url(#clip0_6009_457773)">
<rect x="0.0397339" y="10" width="72" height="72" fill="#92E7FF"/>
<path d="M76.3699 19.5597C70.9772 19.5597 66.5904 15.1721 66.5904 9.7803C66.5904 4.38851 70.9772 0 76.3699 0C81.7625 0 86.1502 4.38764 86.1502 9.7803C86.1502 15.173 81.7625 19.5597 76.3699 19.5597Z" fill="white"/>
<path d="M33.7095 23.9956C28.3168 23.9956 23.9301 19.608 23.9301 14.2162C23.9301 8.82441 28.3168 4.43677 33.7095 4.43677C39.1022 4.43677 43.489 8.82441 43.489 14.2162C43.489 19.608 39.1022 23.9956 33.7095 23.9956Z" fill="white"/>
<path d="M24.5675 25.5776C25.9608 25.0743 27.5384 25.4297 28.5884 26.4806L32.874 30.7653C32.9025 30.7939 32.9406 30.8042 32.9709 30.8293C33.4042 31.1822 34.014 31.1822 34.4473 30.8293C34.4784 30.8042 34.5156 30.7939 34.5441 30.7653L38.8297 26.4797C39.8797 25.4297 41.4599 25.0769 42.8506 25.5776C47.1596 27.1327 50.2542 30.8691 51.075 35.2524C52.5393 35.8103 53.8885 36.6596 55.0388 37.7849C56.1312 36.7158 57.4 35.8898 58.7787 35.3311V33.136C58.7787 27.784 62.1734 22.9639 67.227 21.1407C68.6204 20.6373 70.1971 20.9937 71.248 22.0436L75.5335 26.3284C75.9945 26.7885 76.7435 26.7885 77.2037 26.3284L81.4893 22.0428C82.5392 20.9937 84.1194 20.6408 85.5102 21.1407C90.5655 22.9656 93.9603 27.7857 93.9603 33.1369V59.64H65.9677L57.0688 68.539L55.1859 70.4219L55.038 70.274L54.8909 70.421L53.0089 68.539L44.1099 59.64H16.1191V37.5729C16.1191 32.2218 19.5139 27.4008 24.5675 25.5776Z" fill="white"/>
<path d="M76.3699 19.5597C70.9772 19.5597 66.5904 15.1721 66.5904 9.7803C66.5904 4.38851 70.9772 0 76.3699 0C81.7625 0 86.1502 4.38764 86.1502 9.7803C86.1502 15.173 81.7625 19.5597 76.3699 19.5597ZM76.3699 2.66217C72.445 2.66217 69.2517 5.85538 69.2517 9.7803C69.2517 13.7052 72.445 16.8984 76.3699 16.8984C80.2948 16.8984 83.488 13.7052 83.488 9.7803C83.488 5.85538 80.2948 2.66217 76.3699 2.66217Z" fill="#1B2E32"/>
<path d="M33.7095 23.9956C28.3168 23.9956 23.9301 19.608 23.9301 14.2162C23.9301 8.82441 28.3168 4.43677 33.7095 4.43677C39.1022 4.43677 43.489 8.82441 43.489 14.2162C43.489 19.608 39.1022 23.9956 33.7095 23.9956ZM33.7095 7.09807C29.7846 7.09807 26.5914 10.2913 26.5914 14.2162C26.5914 18.1411 29.7846 21.3343 33.7095 21.3343C37.6344 21.3343 40.8277 18.1411 40.8277 14.2162C40.8277 10.2913 37.6344 7.09807 33.7095 7.09807Z" fill="#1B2E32"/>
<path d="M24.5675 25.5776C25.9608 25.0743 27.5384 25.4297 28.5884 26.4806L32.874 30.7653C32.9025 30.7939 32.9406 30.8042 32.9709 30.8293C33.4042 31.1822 34.014 31.1822 34.4473 30.8293C34.4784 30.8042 34.5156 30.7939 34.5441 30.7653L38.8297 26.4797C39.8797 25.4297 41.4599 25.0769 42.8506 25.5776C47.1596 27.1327 50.2542 30.8691 51.075 35.2524C52.5393 35.8103 53.8885 36.6596 55.0388 37.7849C56.1312 36.7158 57.4 35.8898 58.7787 35.3311V33.136C58.7787 27.784 62.1734 22.9639 67.227 21.1407C68.6204 20.6373 70.1971 20.9937 71.248 22.0436L75.5335 26.3284C75.9945 26.7885 76.7435 26.7885 77.2037 26.3284L81.4893 22.0428C82.5392 20.9937 84.1194 20.6408 85.5102 21.1407C90.5655 22.9656 93.9603 27.7857 93.9603 33.1369V59.64H65.9677L57.0688 68.539L55.1859 70.4219L55.038 70.274L54.8909 70.421L53.0089 68.539L44.1099 59.64H16.1191V37.5729C16.1191 32.2218 19.5139 27.4008 24.5675 25.5776ZM18.7813 56.9787H41.4495L38.7406 54.2699C34.2215 49.7508 34.2215 42.3965 38.7406 37.8774C40.9271 35.6909 43.8384 34.487 46.9364 34.487C47.3516 34.487 47.7616 34.5129 48.1689 34.5553C47.2348 31.6077 44.9653 29.1704 41.9486 28.0815C41.5239 27.9276 41.0369 28.0383 40.7109 28.3626L36.4262 32.6473C34.9273 34.1462 32.4891 34.1453 30.992 32.6473L26.7064 28.3626C26.3821 28.0383 25.8977 27.9284 25.4696 28.0815C21.4694 29.525 18.7804 33.3393 18.7804 37.5729V56.9787H18.7813ZM91.2981 56.9787V33.1369C91.2981 28.904 88.6091 25.0898 84.609 23.6454C84.1834 23.4915 83.6965 23.6022 83.3713 23.9265L79.0866 28.2113C77.5877 29.7101 75.1495 29.7093 73.6524 28.2113L69.3668 23.9265C69.0425 23.6022 68.5581 23.4924 68.13 23.6454C64.1298 25.089 61.4408 28.9032 61.4408 33.1369V34.6236C62.0004 34.5423 62.5661 34.487 63.1421 34.487C66.241 34.487 69.1514 35.6909 71.3379 37.8774C75.857 42.3965 75.857 49.7499 71.3379 54.2699L68.629 56.9787H91.2981ZM69.4567 52.3878C72.938 48.9066 72.938 43.2415 69.4567 39.7603C67.7157 38.0192 65.4298 37.1491 63.143 37.1491C60.8562 37.1491 58.5694 38.0192 56.8292 39.7603L55.0397 41.5498L53.2502 39.7603C51.5092 38.0192 49.2232 37.1491 46.9364 37.1491C44.6496 37.1491 42.3628 38.0192 40.6227 39.7603C37.1414 43.2415 37.1414 48.9066 40.6227 52.3878L54.8918 66.657L55.0397 66.51L55.1867 66.657L69.4567 52.3878Z" fill="#1B2E32"/>
</g>
<defs>
<clipPath id="clip0_6009_457773">
<rect width="93.9205" height="82" fill="white" transform="translate(0.0397339)"/>
</clipPath>
</defs>
</svg>
